<?xml version="1.0" encoding="UTF-8" standalone="no"?>
<svg
   width="311.47293pt"
   height="296.86826pt"
   viewBox="0 0 311.47294 296.86825"
   version="1.1"
   id="svg163"
   sodipodi:docname="pca_fails_nonlinear.svg"
   inkscape:version="1.3 (0e150ed6c4, 2023-07-21)"
   xmlns:inkscape="http://www.inkscape.org/namespaces/inkscape"
   xmlns:sodipodi="http://sodipodi.sourceforge.net/DTD/sodipodi-0.dtd"
   xmlns:xlink="http://www.w3.org/1999/xlink"
   xmlns="http://www.w3.org/2000/svg"
   xmlns:svg="http://www.w3.org/2000/svg"
   xmlns:rdf="http://www.w3.org/1999/02/22-rdf-syntax-ns#"
   xmlns:cc="http://creativecommons.org/ns#"
   xmlns:dc="http://purl.org/dc/elements/1.1/">
  <sodipodi:namedview
     id="namedview163"
     pagecolor="#ffffff"
     bordercolor="#666666"
     borderopacity="1.0"
     inkscape:showpageshadow="2"
     inkscape:pageopacity="0.0"
     inkscape:pagecheckerboard="0"
     inkscape:deskcolor="#d1d1d1"
     inkscape:document-units="pt"
     inkscape:zoom="1.7599826"
     inkscape:cx="230.11591"
     inkscape:cy="175.85401"
     inkscape:window-width="1920"
     inkscape:window-height="1015"
     inkscape:window-x="0"
     inkscape:window-y="37"
     inkscape:window-maximized="1"
     inkscape:current-layer="svg163" />
  <metadata
     id="metadata1">
    <rdf:RDF>
      <cc:Work>
        <dc:type
           rdf:resource="http://purl.org/dc/dcmitype/StillImage" />
        <dc:date>2024-03-13T10:08:18.654722</dc:date>
        <dc:format>image/svg+xml</dc:format>
        <dc:creator>
          <cc:Agent>
            <dc:title>Matplotlib v3.8.2, https://matplotlib.org/</dc:title>
          </cc:Agent>
        </dc:creator>
      </cc:Work>
    </rdf:RDF>
  </metadata>
  <defs
     id="defs1">
    <style
       type="text/css"
       id="style1">*{stroke-linejoin: round; stroke-linecap: butt}</style>
  </defs>
  <g
     id="axes_1"
     transform="translate(-58.143062,-41.072)">
    <g
       id="patch_2">
      <path
         d="M 103.104,307.584 H 369.216 V 41.472 H 103.104 Z"
         style="fill:#ffffff"
         id="path2" />
    </g>
    <g
       id="PathCollection_1">
      <defs
         id="defs2">
        <path
           id="m8b942eca47"
           d="m 0,1.581139 c 0.419323,0 0.821528,-0.166599 1.118034,-0.463105 C 1.41454,0.821528 1.581139,0.419323 1.581139,0 1.581139,-0.419323 1.41454,-0.821528 1.118034,-1.118034 0.821528,-1.41454 0.419323,-1.581139 0,-1.581139 c -0.419323,0 -0.821528,0.166599 -1.118034,0.463105 C -1.41454,-0.821528 -1.581139,-0.419323 -1.581139,0 c 0,0.419323 0.166599,0.821528 0.463105,1.118034 C -0.821528,1.41454 -0.419323,1.581139 0,1.581139 Z"
           style="stroke:#000000" />
      </defs>
      <g
         clip-path="url(#p4b62070379)"
         id="g73">
        <use
           xlink:href="#m8b942eca47"
           x="342.02982"
           y="174.37589"
           style="stroke:#000000"
           id="use2" />
        <use
           xlink:href="#m8b942eca47"
           x="350.14249"
           y="166.09221"
           style="stroke:#000000"
           id="use3" />
        <use
           xlink:href="#m8b942eca47"
           x="348.85001"
           y="157.07184"
           style="stroke:#000000"
           id="use4" />
        <use
           xlink:href="#m8b942eca47"
           x="341.14679"
           y="143.89015"
           style="stroke:#000000"
           id="use5" />
        <use
           xlink:href="#m8b942eca47"
           x="337.4006"
           y="138.24911"
           style="stroke:#000000"
           id="use6" />
        <use
           xlink:href="#m8b942eca47"
           x="339.74008"
           y="126.1525"
           style="stroke:#000000"
           id="use7" />
        <use
           xlink:href="#m8b942eca47"
           x="328.64996"
           y="119.6773"
           style="stroke:#000000"
           id="use8" />
        <use
           xlink:href="#m8b942eca47"
           x="334.59888"
           y="112.33953"
           style="stroke:#000000"
           id="use9" />
        <use
           xlink:href="#m8b942eca47"
           x="318.66016"
           y="102.11025"
           style="stroke:#000000"
           id="use10" />
        <use
           xlink:href="#m8b942eca47"
           x="307.34451"
           y="94.393044"
           style="stroke:#000000"
           id="use11" />
        <use
           xlink:href="#m8b942eca47"
           x="312.85138"
           y="88.01947"
           style="stroke:#000000"
           id="use12" />
        <use
           xlink:href="#m8b942eca47"
           x="306.05814"
           y="80.028946"
           style="stroke:#000000"
           id="use13" />
        <use
           xlink:href="#m8b942eca47"
           x="294.29056"
           y="76.251686"
           style="stroke:#000000"
           id="use14" />
        <use
           xlink:href="#m8b942eca47"
           x="284.53308"
           y="74.446175"
           style="stroke:#000000"
           id="use15" />
        <use
           xlink:href="#m8b942eca47"
           x="273.37286"
           y="68.439156"
           style="stroke:#000000"
           id="use16" />
        <use
           xlink:href="#m8b942eca47"
           x="269.47699"
           y="64.990234"
           style="stroke:#000000"
           id="use17" />
        <use
           xlink:href="#m8b942eca47"
           x="261.26471"
           y="62.466999"
           style="stroke:#000000"
           id="use18" />
        <use
           xlink:href="#m8b942eca47"
           x="243.00275"
           y="60.122864"
           style="stroke:#000000"
           id="use19" />
        <use
           xlink:href="#m8b942eca47"
           x="236.12526"
           y="64.165741"
           style="stroke:#000000"
           id="use20" />
        <use
           xlink:href="#m8b942eca47"
           x="222.68692"
           y="61.945965"
           style="stroke:#000000"
           id="use21" />
        <use
           xlink:href="#m8b942eca47"
           x="217.8642"
           y="64.535591"
           style="stroke:#000000"
           id="use22" />
        <use
           xlink:href="#m8b942eca47"
           x="205.37128"
           y="67.527084"
           style="stroke:#000000"
           id="use23" />
        <use
           xlink:href="#m8b942eca47"
           x="203.07521"
           y="67.81498"
           style="stroke:#000000"
           id="use24" />
        <use
           xlink:href="#m8b942eca47"
           x="189.71078"
           y="73.589005"
           style="stroke:#000000"
           id="use25" />
        <use
           xlink:href="#m8b942eca47"
           x="186.35684"
           y="78.507706"
           style="stroke:#000000"
           id="use26" />
        <use
           xlink:href="#m8b942eca47"
           x="174.86583"
           y="84.439095"
           style="stroke:#000000"
           id="use27" />
        <use
           xlink:href="#m8b942eca47"
           x="160.70245"
           y="89.517334"
           style="stroke:#000000"
           id="use28" />
        <use
           xlink:href="#m8b942eca47"
           x="151.87762"
           y="91.899956"
           style="stroke:#000000"
           id="use29" />
        <use
           xlink:href="#m8b942eca47"
           x="145.90517"
           y="103.24393"
           style="stroke:#000000"
           id="use30" />
        <use
           xlink:href="#m8b942eca47"
           x="143.00281"
           y="112.00658"
           style="stroke:#000000"
           id="use31" />
        <use
           xlink:href="#m8b942eca47"
           x="140.86397"
           y="118.90028"
           style="stroke:#000000"
           id="use32" />
        <use
           xlink:href="#m8b942eca47"
           x="133.0414"
           y="127.56173"
           style="stroke:#000000"
           id="use33" />
        <use
           xlink:href="#m8b942eca47"
           x="128.45006"
           y="135.89348"
           style="stroke:#000000"
           id="use34" />
        <use
           xlink:href="#m8b942eca47"
           x="123.10388"
           y="146.13885"
           style="stroke:#000000"
           id="use35" />
        <use
           xlink:href="#m8b942eca47"
           x="133.69337"
           y="156.83049"
           style="stroke:#000000"
           id="use36" />
        <use
           xlink:href="#m8b942eca47"
           x="117.66935"
           y="163.67062"
           style="stroke:#000000"
           id="use37" />
        <use
           xlink:href="#m8b942eca47"
           x="115.2"
           y="175.24408"
           style="stroke:#000000"
           id="use38" />
        <use
           xlink:href="#m8b942eca47"
           x="130.8575"
           y="183.92191"
           style="stroke:#000000"
           id="use39" />
        <use
           xlink:href="#m8b942eca47"
           x="126.42733"
           y="194.52658"
           style="stroke:#000000"
           id="use40" />
        <use
           xlink:href="#m8b942eca47"
           x="123.2897"
           y="204.08192"
           style="stroke:#000000"
           id="use41" />
        <use
           xlink:href="#m8b942eca47"
           x="133.30635"
           y="212.83261"
           style="stroke:#000000"
           id="use42" />
        <use
           xlink:href="#m8b942eca47"
           x="140.71683"
           y="223.67142"
           style="stroke:#000000"
           id="use43" />
        <use
           xlink:href="#m8b942eca47"
           x="142.53651"
           y="229.57629"
           style="stroke:#000000"
           id="use44" />
        <use
           xlink:href="#m8b942eca47"
           x="150.77344"
           y="240.72467"
           style="stroke:#000000"
           id="use45" />
        <use
           xlink:href="#m8b942eca47"
           x="148.21573"
           y="248.81178"
           style="stroke:#000000"
           id="use46" />
        <use
           xlink:href="#m8b942eca47"
           x="151.49725"
           y="251.18901"
           style="stroke:#000000"
           id="use47" />
        <use
           xlink:href="#m8b942eca47"
           x="166.02351"
           y="262.16833"
           style="stroke:#000000"
           id="use48" />
        <use
           xlink:href="#m8b942eca47"
           x="176.78209"
           y="263.82025"
           style="stroke:#000000"
           id="use49" />
        <use
           xlink:href="#m8b942eca47"
           x="177.99808"
           y="271.74353"
           style="stroke:#000000"
           id="use50" />
        <use
           xlink:href="#m8b942eca47"
           x="191.36311"
           y="276.61783"
           style="stroke:#000000"
           id="use51" />
        <use
           xlink:href="#m8b942eca47"
           x="203.5546"
           y="277.80984"
           style="stroke:#000000"
           id="use52" />
        <use
           xlink:href="#m8b942eca47"
           x="204.47893"
           y="282.34167"
           style="stroke:#000000"
           id="use53" />
        <use
           xlink:href="#m8b942eca47"
           x="210.27968"
           y="287.33743"
           style="stroke:#000000"
           id="use54" />
        <use
           xlink:href="#m8b942eca47"
           x="228.85945"
           y="283.60785"
           style="stroke:#000000"
           id="use55" />
        <use
           xlink:href="#m8b942eca47"
           x="227.79568"
           y="288.62579"
           style="stroke:#000000"
           id="use56" />
        <use
           xlink:href="#m8b942eca47"
           x="247.70883"
           y="286.06848"
           style="stroke:#000000"
           id="use57" />
        <use
           xlink:href="#m8b942eca47"
           x="257.22849"
           y="284.99713"
           style="stroke:#000000"
           id="use58" />
        <use
           xlink:href="#m8b942eca47"
           x="262.38013"
           y="281.15778"
           style="stroke:#000000"
           id="use59" />
        <use
           xlink:href="#m8b942eca47"
           x="273.0575"
           y="280.4115"
           style="stroke:#000000"
           id="use60" />
        <use
           xlink:href="#m8b942eca47"
           x="290.07339"
           y="276.72769"
           style="stroke:#000000"
           id="use61" />
        <use
           xlink:href="#m8b942eca47"
           x="295.4274"
           y="271.11047"
           style="stroke:#000000"
           id="use62" />
        <use
           xlink:href="#m8b942eca47"
           x="292.13531"
           y="268.55884"
           style="stroke:#000000"
           id="use63" />
        <use
           xlink:href="#m8b942eca47"
           x="301.01822"
           y="262.70288"
           style="stroke:#000000"
           id="use64" />
        <use
           xlink:href="#m8b942eca47"
           x="321.05637"
           y="252.10913"
           style="stroke:#000000"
           id="use65" />
        <use
           xlink:href="#m8b942eca47"
           x="328.5285"
           y="247.9873"
           style="stroke:#000000"
           id="use66" />
        <use
           xlink:href="#m8b942eca47"
           x="331.61746"
           y="237.46951"
           style="stroke:#000000"
           id="use67" />
        <use
           xlink:href="#m8b942eca47"
           x="331.03702"
           y="228.91318"
           style="stroke:#000000"
           id="use68" />
        <use
           xlink:href="#m8b942eca47"
           x="339.90356"
           y="221.11763"
           style="stroke:#000000"
           id="use69" />
        <use
           xlink:href="#m8b942eca47"
           x="335.16858"
           y="210.52214"
           style="stroke:#000000"
           id="use70" />
        <use
           xlink:href="#m8b942eca47"
           x="351.2132"
           y="204.05743"
           style="stroke:#000000"
           id="use71" />
        <use
           xlink:href="#m8b942eca47"
           x="347.04565"
           y="192.5697"
           style="stroke:#000000"
           id="use72" />
        <use
           xlink:href="#m8b942eca47"
           x="341.18451"
           y="183.57668"
           style="stroke:#000000"
           id="use73" />
      </g>
    </g>
    <g
       id="patch_3">
      <path
         d="m 302.35066,108.33735 -6.73126,13.4625 -2.24375,-2.24375 -56.09377,56.09378 -2.24376,-2.24376 56.09378,-56.09377 -2.24375,-2.24375 z"
         clip-path="url(#p4b62070379)"
         style="fill:#3cb371;stroke:#3cb371;stroke-linejoin:miter"
         id="path73" />
    </g>
    <g
       id="patch_4">
      <path
         d="m 302.35066,240.71865 -13.46251,-6.73125 2.24375,-2.24375 -56.09378,-56.09377 2.24376,-2.24376 56.09377,56.09378 2.24375,-2.24375 z"
         clip-path="url(#p4b62070379)"
         style="fill:#3cb371;stroke:#3cb371;stroke-linejoin:miter"
         id="path74" />
    </g>
    <g
       id="matplotlib.axis_1">
      <g
         id="xtick_1">
        <g
           id="line2d_1">
          <defs
             id="defs74">
            <path
               id="m2e7c77b741"
               d="M 0,0 V 3.5"
               style="stroke:#000000;stroke-width:0.8" />
          </defs>
          <g
             id="g74">
            <use
               xlink:href="#m2e7c77b741"
               x="117.16714"
               y="307.58401"
               style="stroke:#000000;stroke-width:0.8"
               id="use74" />
          </g>
        </g>
        <g
           id="text_1">
          <!-- −1.5 -->
          <g
             transform="matrix(0.1,0,0,-0.1,105.02573,322.18244)"
             id="g78">
            <defs
               id="defs75">
              <path
                 id="DejaVuSans-2212"
                 d="M 678,2272 H 4684 V 1741 H 678 Z"
                 transform="scale(0.015625)" />
              <path
                 id="DejaVuSans-31"
                 d="M 794,531 H 1825 V 4091 L 703,3866 v 575 l 1116,225 h 631 V 531 H 3481 V 0 H 794 Z"
                 transform="scale(0.015625)" />
              <path
                 id="DejaVuSans-2e"
                 d="m 684,794 h 660 V 0 H 684 Z"
                 transform="scale(0.015625)" />
              <path
                 id="DejaVuSans-35"
                 d="M 691,4666 H 3169 V 4134 H 1269 V 2991 q 137,47 274,70 138,23 276,23 781,0 1237,-428 457,-428 457,-1159 Q 3513,744 3044,326 2575,-91 1722,-91 1428,-91 1123,-41 819,9 494,109 v 635 q 281,-153 581,-228 300,-75 634,-75 541,0 856,284 316,284 316,772 0,487 -316,771 -315,285 -856,285 -253,0 -505,-56 -251,-56 -513,-175 z"
                 transform="scale(0.015625)" />
            </defs>
            <use
               xlink:href="#DejaVuSans-2212"
               id="use75" />
            <use
               xlink:href="#DejaVuSans-31"
               x="83.789062"
               id="use76" />
            <use
               xlink:href="#DejaVuSans-2e"
               x="147.41211"
               id="use77" />
            <use
               xlink:href="#DejaVuSans-35"
               x="179.19922"
               id="use78" />
          </g>
        </g>
      </g>
      <g
         id="xtick_2">
        <g
           id="line2d_2">
          <g
             id="g79">
            <use
               xlink:href="#m2e7c77b741"
               x="156.83142"
               y="307.58401"
               style="stroke:#000000;stroke-width:0.8"
               id="use79" />
          </g>
        </g>
        <g
           id="text_2">
          <!-- −1.0 -->
          <g
             transform="matrix(0.1,0,0,-0.1,144.69002,322.18244)"
             id="g83">
            <defs
               id="defs79">
              <path
                 id="DejaVuSans-30"
                 d="m 2034,4250 q -487,0 -733,-480 -245,-479 -245,-1442 0,-959 245,-1439 246,-480 733,-480 491,0 736,480 246,480 246,1439 0,963 -246,1442 -245,480 -736,480 z m 0,500 q 785,0 1199,-621 414,-620 414,-1801 0,-1178 -414,-1799 -414,-620 -1199,-620 -784,0 -1198,620 -414,621 -414,1799 0,1181 414,1801 414,621 1198,621 z"
                 transform="scale(0.015625)" />
            </defs>
            <use
               xlink:href="#DejaVuSans-2212"
               id="use80" />
            <use
               xlink:href="#DejaVuSans-31"
               x="83.789062"
               id="use81" />
            <use
               xlink:href="#DejaVuSans-2e"
               x="147.41211"
               id="use82" />
            <use
               xlink:href="#DejaVuSans-30"
               x="179.19922"
               id="use83" />
          </g>
        </g>
      </g>
      <g
         id="xtick_3">
        <g
           id="line2d_3">
          <g
             id="g84">
            <use
               xlink:href="#m2e7c77b741"
               x="196.49571"
               y="307.58401"
               style="stroke:#000000;stroke-width:0.8"
               id="use84" />
          </g>
        </g>
        <g
           id="text_3">
          <!-- −0.5 -->
          <g
             transform="matrix(0.1,0,0,-0.1,184.3543,322.18244)"
             id="g88">
            <use
               xlink:href="#DejaVuSans-2212"
               id="use85" />
            <use
               xlink:href="#DejaVuSans-30"
               x="83.789062"
               id="use86" />
            <use
               xlink:href="#DejaVuSans-2e"
               x="147.41211"
               id="use87" />
            <use
               xlink:href="#DejaVuSans-35"
               x="179.19922"
               id="use88" />
          </g>
        </g>
      </g>
      <g
         id="xtick_4">
        <g
           id="line2d_4">
          <g
             id="g89">
            <use
               xlink:href="#m2e7c77b741"
               x="236.16"
               y="307.58401"
               style="stroke:#000000;stroke-width:0.8"
               id="use89" />
          </g>
        </g>
        <g
           id="text_4">
          <!-- 0.0 -->
          <g
             transform="matrix(0.1,0,0,-0.1,228.20844,322.18244)"
             id="g92">
            <use
               xlink:href="#DejaVuSans-30"
               id="use90" />
            <use
               xlink:href="#DejaVuSans-2e"
               x="63.623047"
               id="use91" />
            <use
               xlink:href="#DejaVuSans-30"
               x="95.410156"
               id="use92" />
          </g>
        </g>
      </g>
      <g
         id="xtick_5">
        <g
           id="line2d_5">
          <g
             id="g93">
            <use
               xlink:href="#m2e7c77b741"
               x="275.82428"
               y="307.58401"
               style="stroke:#000000;stroke-width:0.8"
               id="use93" />
          </g>
        </g>
        <g
           id="text_5">
          <!-- 0.5 -->
          <g
             transform="matrix(0.1,0,0,-0.1,267.87273,322.18244)"
             id="g96">
            <use
               xlink:href="#DejaVuSans-30"
               id="use94" />
            <use
               xlink:href="#DejaVuSans-2e"
               x="63.623047"
               id="use95" />
            <use
               xlink:href="#DejaVuSans-35"
               x="95.410156"
               id="use96" />
          </g>
        </g>
      </g>
      <g
         id="xtick_6">
        <g
           id="line2d_6">
          <g
             id="g97">
            <use
               xlink:href="#m2e7c77b741"
               x="315.48859"
               y="307.58401"
               style="stroke:#000000;stroke-width:0.8"
               id="use97" />
          </g>
        </g>
        <g
           id="text_6">
          <!-- 1.0 -->
          <g
             transform="matrix(0.1,0,0,-0.1,307.53701,322.18244)"
             id="g100">
            <use
               xlink:href="#DejaVuSans-31"
               id="use98" />
            <use
               xlink:href="#DejaVuSans-2e"
               x="63.623047"
               id="use99" />
            <use
               xlink:href="#DejaVuSans-30"
               x="95.410156"
               id="use100" />
          </g>
        </g>
      </g>
      <g
         id="xtick_7">
        <g
           id="line2d_7">
          <g
             id="g101">
            <use
               xlink:href="#m2e7c77b741"
               x="355.15286"
               y="307.58401"
               style="stroke:#000000;stroke-width:0.8"
               id="use101" />
          </g>
        </g>
        <g
           id="text_7">
          <!-- 1.5 -->
          <g
             transform="matrix(0.1,0,0,-0.1,347.2013,322.18244)"
             id="g104">
            <use
               xlink:href="#DejaVuSans-31"
               id="use102" />
            <use
               xlink:href="#DejaVuSans-2e"
               x="63.623047"
               id="use103" />
            <use
               xlink:href="#DejaVuSans-35"
               x="95.410156"
               id="use104" />
          </g>
        </g>
      </g>
      <g
         id="text_8">
        <!-- x position -->
        <g
           transform="matrix(0.1,0,0,-0.1,211.80687,335.86056)"
           id="g114">
          <defs
             id="defs104">
            <path
               id="DejaVuSans-78"
               d="M 3513,3500 2247,1797 3578,0 H 2900 L 1881,1375 863,0 H 184 L 1544,1831 300,3500 h 678 l 928,-1247 928,1247 z"
               transform="scale(0.015625)" />
            <path
               id="DejaVuSans-20"
               transform="scale(0.015625)"
               d="" />
            <path
               id="DejaVuSans-70"
               d="M 1159,525 V -1331 H 581 v 4831 h 578 v -531 q 182,312 458,463 277,152 661,152 638,0 1036,-506 399,-506 399,-1331 0,-825 -399,-1332 -398,-506 -1036,-506 -384,0 -661,152 -276,152 -458,464 z m 1957,1222 q 0,634 -261,995 -261,361 -717,361 -457,0 -718,-361 -261,-361 -261,-995 0,-634 261,-995 261,-361 718,-361 456,0 717,361 261,361 261,995 z"
               transform="scale(0.015625)" />
            <path
               id="DejaVuSans-6f"
               d="m 1959,3097 q -462,0 -731,-361 -269,-361 -269,-989 0,-628 267,-989 268,-361 733,-361 460,0 728,362 269,363 269,988 0,622 -269,986 -268,364 -728,364 z m 0,487 q 750,0 1178,-488 429,-487 429,-1349 Q 3566,888 3137,398 2709,-91 1959,-91 1206,-91 779,398 353,888 353,1747 q 0,862 426,1349 427,488 1180,488 z"
               transform="scale(0.015625)" />
            <path
               id="DejaVuSans-73"
               d="m 2834,3397 v -544 q -243,125 -506,187 -262,63 -544,63 -428,0 -642,-131 -214,-131 -214,-394 0,-200 153,-314 153,-114 616,-217 l 197,-44 q 612,-131 870,-370 258,-239 258,-667 0,-488 -386,-773 Q 2250,-91 1575,-91 1294,-91 989,-36 684,19 347,128 v 594 q 319,-166 628,-249 309,-82 613,-82 406,0 624,139 219,139 219,392 0,234 -158,359 -157,125 -692,241 l -200,47 q -534,112 -772,345 -237,233 -237,639 0,494 350,762 350,269 994,269 318,0 599,-47 282,-46 519,-140 z"
               transform="scale(0.015625)" />
            <path
               id="DejaVuSans-69"
               d="m 603,3500 h 575 V 0 H 603 Z m 0,1363 h 575 V 4134 H 603 Z"
               transform="scale(0.015625)" />
            <path
               id="DejaVuSans-74"
               d="M 1172,4494 V 3500 H 2356 V 3053 H 1172 V 1153 q 0,-428 117,-550 117,-122 477,-122 h 590 V 0 H 1766 Q 1100,0 847,248 594,497 594,1153 V 3053 H 172 v 447 h 422 v 994 z"
               transform="scale(0.015625)" />
            <path
               id="DejaVuSans-6e"
               d="M 3513,2113 V 0 h -575 v 2094 q 0,497 -194,743 -194,247 -581,247 -466,0 -735,-297 -269,-296 -269,-809 V 0 H 581 v 3500 h 578 v -544 q 207,316 486,472 280,156 646,156 603,0 912,-373 310,-373 310,-1098 z"
               transform="scale(0.015625)" />
          </defs>
          <use
             xlink:href="#DejaVuSans-78"
             id="use105" />
          <use
             xlink:href="#DejaVuSans-20"
             x="59.179688"
             id="use106" />
          <use
             xlink:href="#DejaVuSans-70"
             x="90.966797"
             id="use107" />
          <use
             xlink:href="#DejaVuSans-6f"
             x="154.44336"
             id="use108" />
          <use
             xlink:href="#DejaVuSans-73"
             x="215.625"
             id="use109" />
          <use
             xlink:href="#DejaVuSans-69"
             x="267.72461"
             id="use110" />
          <use
             xlink:href="#DejaVuSans-74"
             x="295.50781"
             id="use111" />
          <use
             xlink:href="#DejaVuSans-69"
             x="334.7168"
             id="use112" />
          <use
             xlink:href="#DejaVuSans-6f"
             x="362.5"
             id="use113" />
          <use
             xlink:href="#DejaVuSans-6e"
             x="423.68164"
             id="use114" />
        </g>
      </g>
    </g>
    <g
       id="matplotlib.axis_2">
      <g
         id="ytick_1">
        <g
           id="line2d_8">
          <defs
             id="defs114">
            <path
               id="m26f0d03a23"
               d="M 0,0 H -3.5"
               style="stroke:#000000;stroke-width:0.8" />
          </defs>
          <g
             id="g115">
            <use
               xlink:href="#m26f0d03a23"
               x="103.104"
               y="293.52087"
               style="stroke:#000000;stroke-width:0.8"
               id="use115" />
          </g>
        </g>
        <g
           id="text_9">
          <!-- −1.5 -->
          <g
             transform="matrix(0.1,0,0,-0.1,71.821188,297.32008)"
             id="g119">
            <use
               xlink:href="#DejaVuSans-2212"
               id="use116" />
            <use
               xlink:href="#DejaVuSans-31"
               x="83.789062"
               id="use117" />
            <use
               xlink:href="#DejaVuSans-2e"
               x="147.41211"
               id="use118" />
            <use
               xlink:href="#DejaVuSans-35"
               x="179.19922"
               id="use119" />
          </g>
        </g>
      </g>
      <g
         id="ytick_2">
        <g
           id="line2d_9">
          <g
             id="g120">
            <use
               xlink:href="#m26f0d03a23"
               x="103.104"
               y="253.85658"
               style="stroke:#000000;stroke-width:0.8"
               id="use120" />
          </g>
        </g>
        <g
           id="text_10">
          <!-- −1.0 -->
          <g
             transform="matrix(0.1,0,0,-0.1,71.821188,257.6558)"
             id="g124">
            <use
               xlink:href="#DejaVuSans-2212"
               id="use121" />
            <use
               xlink:href="#DejaVuSans-31"
               x="83.789062"
               id="use122" />
            <use
               xlink:href="#DejaVuSans-2e"
               x="147.41211"
               id="use123" />
            <use
               xlink:href="#DejaVuSans-30"
               x="179.19922"
               id="use124" />
          </g>
        </g>
      </g>
      <g
         id="ytick_3">
        <g
           id="line2d_10">
          <g
             id="g125">
            <use
               xlink:href="#m26f0d03a23"
               x="103.104"
               y="214.19229"
               style="stroke:#000000;stroke-width:0.8"
               id="use125" />
          </g>
        </g>
        <g
           id="text_11">
          <!-- −0.5 -->
          <g
             transform="matrix(0.1,0,0,-0.1,71.821188,217.99151)"
             id="g129">
            <use
               xlink:href="#DejaVuSans-2212"
               id="use126" />
            <use
               xlink:href="#DejaVuSans-30"
               x="83.789062"
               id="use127" />
            <use
               xlink:href="#DejaVuSans-2e"
               x="147.41211"
               id="use128" />
            <use
               xlink:href="#DejaVuSans-35"
               x="179.19922"
               id="use129" />
          </g>
        </g>
      </g>
      <g
         id="ytick_4">
        <g
           id="line2d_11">
          <g
             id="g130">
            <use
               xlink:href="#m26f0d03a23"
               x="103.104"
               y="174.528"
               style="stroke:#000000;stroke-width:0.8"
               id="use130" />
          </g>
        </g>
        <g
           id="text_12">
          <!-- 0.0 -->
          <g
             transform="matrix(0.1,0,0,-0.1,80.200875,178.32722)"
             id="g133">
            <use
               xlink:href="#DejaVuSans-30"
               id="use131" />
            <use
               xlink:href="#DejaVuSans-2e"
               x="63.623047"
               id="use132" />
            <use
               xlink:href="#DejaVuSans-30"
               x="95.410156"
               id="use133" />
          </g>
        </g>
      </g>
      <g
         id="ytick_5">
        <g
           id="line2d_12">
          <g
             id="g134">
            <use
               xlink:href="#m26f0d03a23"
               x="103.104"
               y="134.86371"
               style="stroke:#000000;stroke-width:0.8"
               id="use134" />
          </g>
        </g>
        <g
           id="text_13">
          <!-- 0.5 -->
          <g
             transform="matrix(0.1,0,0,-0.1,80.200875,138.66293)"
             id="g137">
            <use
               xlink:href="#DejaVuSans-30"
               id="use135" />
            <use
               xlink:href="#DejaVuSans-2e"
               x="63.623047"
               id="use136" />
            <use
               xlink:href="#DejaVuSans-35"
               x="95.410156"
               id="use137" />
          </g>
        </g>
      </g>
      <g
         id="ytick_6">
        <g
           id="line2d_13">
          <g
             id="g138">
            <use
               xlink:href="#m26f0d03a23"
               x="103.104"
               y="95.199425"
               style="stroke:#000000;stroke-width:0.8"
               id="use138" />
          </g>
        </g>
        <g
           id="text_14">
          <!-- 1.0 -->
          <g
             transform="matrix(0.1,0,0,-0.1,80.200875,98.998641)"
             id="g141">
            <use
               xlink:href="#DejaVuSans-31"
               id="use139" />
            <use
               xlink:href="#DejaVuSans-2e"
               x="63.623047"
               id="use140" />
            <use
               xlink:href="#DejaVuSans-30"
               x="95.410156"
               id="use141" />
          </g>
        </g>
      </g>
      <g
         id="ytick_7">
        <g
           id="line2d_14">
          <g
             id="g142">
            <use
               xlink:href="#m26f0d03a23"
               x="103.104"
               y="55.535133"
               style="stroke:#000000;stroke-width:0.8"
               id="use142" />
          </g>
        </g>
        <g
           id="text_15">
          <!-- 1.5 -->
          <g
             transform="matrix(0.1,0,0,-0.1,80.200875,59.334353)"
             id="g145">
            <use
               xlink:href="#DejaVuSans-31"
               id="use143" />
            <use
               xlink:href="#DejaVuSans-2e"
               x="63.623047"
               id="use144" />
            <use
               xlink:href="#DejaVuSans-35"
               x="95.410156"
               id="use145" />
          </g>
        </g>
      </g>
      <g
         id="text_16">
        <!-- y position -->
        <g
           transform="matrix(0,-0.1,-0.1,0,65.7415,198.88112)"
           id="g155">
          <defs
             id="defs145">
            <path
               id="DejaVuSans-79"
               d="m 2059,-325 q -243,-625 -475,-815 -231,-191 -618,-191 H 506 v 481 h 338 q 237,0 368,113 132,112 291,531 L 1606,56 191,3500 H 800 L 1894,763 2988,3500 h 609 z"
               transform="scale(0.015625)" />
          </defs>
          <use
             xlink:href="#DejaVuSans-79"
             id="use146" />
          <use
             xlink:href="#DejaVuSans-20"
             x="59.179688"
             id="use147" />
          <use
             xlink:href="#DejaVuSans-70"
             x="90.966797"
             id="use148" />
          <use
             xlink:href="#DejaVuSans-6f"
             x="154.44336"
             id="use149" />
          <use
             xlink:href="#DejaVuSans-73"
             x="215.625"
             id="use150" />
          <use
             xlink:href="#DejaVuSans-69"
             x="267.72461"
             id="use151" />
          <use
             xlink:href="#DejaVuSans-74"
             x="295.50781"
             id="use152" />
          <use
             xlink:href="#DejaVuSans-69"
             x="334.7168"
             id="use153" />
          <use
             xlink:href="#DejaVuSans-6f"
             x="362.5"
             id="use154" />
          <use
             xlink:href="#DejaVuSans-6e"
             x="423.68164"
             id="use155" />
        </g>
      </g>
    </g>
    <g
       id="patch_5">
      <path
         d="M 103.104,307.584 V 41.472"
         style="fill:none;stroke:#000000;stroke-width:0.8;stroke-linecap:square;stroke-linejoin:miter"
         id="path155" />
    </g>
    <g
       id="patch_6">
      <path
         d="M 369.216,307.584 V 41.472"
         style="fill:none;stroke:#000000;stroke-width:0.8;stroke-linecap:square;stroke-linejoin:miter"
         id="path156" />
    </g>
    <g
       id="patch_7">
      <path
         d="M 103.104,307.584 H 369.216"
         style="fill:none;stroke:#000000;stroke-width:0.8;stroke-linecap:square;stroke-linejoin:miter"
         id="path157" />
    </g>
    <g
       id="patch_8">
      <path
         d="M 103.104,41.472 H 369.216"
         style="fill:none;stroke:#000000;stroke-width:0.8;stroke-linecap:square;stroke-linejoin:miter"
         id="path158" />
    </g>
    <g
       id="text_17">
      <!-- PC1 -->
      <g
         style="fill:#3cb371"
         transform="matrix(0.12,0,0,-0.12,320.30066,90.387337)"
         id="g160">
        <defs
           id="defs158">
          <path
             id="DejaVuSans-50"
             d="M 1259,4147 V 2394 h 794 q 441,0 681,228 241,228 241,650 0,419 -241,647 -240,228 -681,228 z m -631,519 h 1425 q 785,0 1186,-355 402,-355 402,-1039 0,-691 -402,-1044 -401,-353 -1186,-353 H 1259 V 0 H 628 Z"
             transform="scale(0.015625)" />
          <path
             id="DejaVuSans-43"
             d="m 4122,4306 v -665 q -319,297 -680,443 -361,147 -767,147 -800,0 -1225,-489 -425,-489 -425,-1414 0,-922 425,-1411 425,-489 1225,-489 406,0 767,147 361,147 680,444 V 359 Q 3791,134 3420,21 3050,-91 2638,-91 1578,-91 968,557 359,1206 359,2328 q 0,1125 609,1773 610,649 1670,649 418,0 788,-111 371,-111 696,-333 z"
             transform="scale(0.015625)" />
        </defs>
        <use
           xlink:href="#DejaVuSans-50"
           id="use158" />
        <use
           xlink:href="#DejaVuSans-43"
           x="60.302734"
           id="use159" />
        <use
           xlink:href="#DejaVuSans-31"
           x="130.12695"
           id="use160" />
      </g>
    </g>
    <g
       id="text_18">
      <!-- PC2 -->
      <g
         style="fill:#3cb371"
         transform="matrix(0.12,0,0,-0.12,320.30066,258.66866)"
         id="g163">
        <defs
           id="defs160">
          <path
             id="DejaVuSans-32"
             d="M 1228,531 H 3431 V 0 H 469 v 531 q 359,372 979,998 621,627 780,809 303,340 423,576 121,236 121,464 0,372 -261,606 -261,235 -680,235 -297,0 -627,-103 -329,-103 -704,-313 v 638 q 381,153 712,231 332,78 607,78 725,0 1156,-363 431,-362 431,-968 0,-288 -108,-546 -107,-257 -392,-607 -78,-91 -497,-524 Q 1991,1309 1228,531 Z"
             transform="scale(0.015625)" />
        </defs>
        <use
           xlink:href="#DejaVuSans-50"
           id="use161" />
        <use
           xlink:href="#DejaVuSans-43"
           x="60.302734"
           id="use162" />
        <use
           xlink:href="#DejaVuSans-32"
           x="130.12695"
           id="use163" />
      </g>
    </g>
  </g>
  <defs
     id="defs163">
    <clipPath
       id="p4b62070379">
      <rect
         x="103.104"
         y="41.472"
         width="266.112"
         height="266.112"
         id="rect163" />
    </clipPath>
  </defs>
</svg>
