<?xml version="1.0" encoding="UTF-8" standalone="no"?>
<svg
   width="301.93231pt"
   height="296.86826pt"
   viewBox="0 0 301.93232 296.86825"
   version="1.1"
   id="svg163"
   sodipodi:docname="pca_fails_nonorthogonal_pc.svg"
   inkscape:version="1.3 (0e150ed6c4, 2023-07-21)"
   xmlns:inkscape="http://www.inkscape.org/namespaces/inkscape"
   xmlns:sodipodi="http://sodipodi.sourceforge.net/DTD/sodipodi-0.dtd"
   xmlns:xlink="http://www.w3.org/1999/xlink"
   xmlns="http://www.w3.org/2000/svg"
   xmlns:svg="http://www.w3.org/2000/svg"
   xmlns:rdf="http://www.w3.org/1999/02/22-rdf-syntax-ns#"
   xmlns:cc="http://creativecommons.org/ns#"
   xmlns:dc="http://purl.org/dc/elements/1.1/">
  <sodipodi:namedview
     id="namedview163"
     pagecolor="#ffffff"
     bordercolor="#666666"
     borderopacity="1.0"
     inkscape:showpageshadow="2"
     inkscape:pageopacity="0.0"
     inkscape:pagecheckerboard="0"
     inkscape:deskcolor="#d1d1d1"
     inkscape:document-units="pt"
     inkscape:zoom="1.7599826"
     inkscape:cx="217.0476"
     inkscape:cy="175.85401"
     inkscape:window-width="1920"
     inkscape:window-height="1015"
     inkscape:window-x="0"
     inkscape:window-y="37"
     inkscape:window-maximized="1"
     inkscape:current-layer="svg163" />
  <metadata
     id="metadata1">
    <rdf:RDF>
      <cc:Work>
        <dc:type
           rdf:resource="http://purl.org/dc/dcmitype/StillImage" />
        <dc:date>2024-03-13T10:06:49.624184</dc:date>
        <dc:format>image/svg+xml</dc:format>
        <dc:creator>
          <cc:Agent>
            <dc:title>Matplotlib v3.8.2, https://matplotlib.org/</dc:title>
          </cc:Agent>
        </dc:creator>
      </cc:Work>
    </rdf:RDF>
  </metadata>
  <defs
     id="defs1">
    <style
       type="text/css"
       id="style1">*{stroke-linejoin: round; stroke-linecap: butt}</style>
  </defs>
  <g
     id="axes_1"
     transform="translate(-67.683687,-41.072)">
    <g
       id="patch_2">
      <path
         d="M 103.104,307.584 H 369.216 V 41.472 H 103.104 Z"
         style="fill:#ffffff"
         id="path2" />
    </g>
    <g
       id="PathCollection_1">
      <defs
         id="defs2">
        <path
           id="mc42334258b"
           d="m 0,1.581139 c 0.419323,0 0.821528,-0.166599 1.118034,-0.463105 C 1.41454,0.821528 1.581139,0.419323 1.581139,0 1.581139,-0.419323 1.41454,-0.821528 1.118034,-1.118034 0.821528,-1.41454 0.419323,-1.581139 0,-1.581139 c -0.419323,0 -0.821528,0.166599 -1.118034,0.463105 C -1.41454,-0.821528 -1.581139,-0.419323 -1.581139,0 c 0,0.419323 0.166599,0.821528 0.463105,1.118034 C -0.821528,1.41454 -0.419323,1.581139 0,1.581139 Z"
           style="stroke:#000000" />
      </defs>
      <g
         clip-path="url(#p8ad0f25cf7)"
         id="g111">
        <use
           xlink:href="#mc42334258b"
           x="143.35449"
           y="233.74194"
           style="stroke:#000000"
           id="use2" />
        <use
           xlink:href="#mc42334258b"
           x="144.78384"
           y="224.29065"
           style="stroke:#000000"
           id="use3" />
        <use
           xlink:href="#mc42334258b"
           x="146.39998"
           y="229.39136"
           style="stroke:#000000"
           id="use4" />
        <use
           xlink:href="#mc42334258b"
           x="149.14552"
           y="230.53679"
           style="stroke:#000000"
           id="use5" />
        <use
           xlink:href="#mc42334258b"
           x="154.75148"
           y="225.83669"
           style="stroke:#000000"
           id="use6" />
        <use
           xlink:href="#mc42334258b"
           x="158.22308"
           y="224.0116"
           style="stroke:#000000"
           id="use7" />
        <use
           xlink:href="#mc42334258b"
           x="152.73251"
           y="222.24797"
           style="stroke:#000000"
           id="use8" />
        <use
           xlink:href="#mc42334258b"
           x="163.45392"
           y="220.65904"
           style="stroke:#000000"
           id="use9" />
        <use
           xlink:href="#mc42334258b"
           x="160.24721"
           y="207.95145"
           style="stroke:#000000"
           id="use10" />
        <use
           xlink:href="#mc42334258b"
           x="171.66621"
           y="218.99361"
           style="stroke:#000000"
           id="use11" />
        <use
           xlink:href="#mc42334258b"
           x="170.79738"
           y="213.85101"
           style="stroke:#000000"
           id="use12" />
        <use
           xlink:href="#mc42334258b"
           x="155.62495"
           y="214.19551"
           style="stroke:#000000"
           id="use13" />
        <use
           xlink:href="#mc42334258b"
           x="197.83418"
           y="217.66949"
           style="stroke:#000000"
           id="use14" />
        <use
           xlink:href="#mc42334258b"
           x="186.3752"
           y="212.49042"
           style="stroke:#000000"
           id="use15" />
        <use
           xlink:href="#mc42334258b"
           x="181.66658"
           y="205.32561"
           style="stroke:#000000"
           id="use16" />
        <use
           xlink:href="#mc42334258b"
           x="185.03931"
           y="206.08241"
           style="stroke:#000000"
           id="use17" />
        <use
           xlink:href="#mc42334258b"
           x="187.52762"
           y="205.96373"
           style="stroke:#000000"
           id="use18" />
        <use
           xlink:href="#mc42334258b"
           x="191.01019"
           y="200.02956"
           style="stroke:#000000"
           id="use19" />
        <use
           xlink:href="#mc42334258b"
           x="197.5789"
           y="204.48056"
           style="stroke:#000000"
           id="use20" />
        <use
           xlink:href="#mc42334258b"
           x="196.07391"
           y="197.87254"
           style="stroke:#000000"
           id="use21" />
        <use
           xlink:href="#mc42334258b"
           x="200.3177"
           y="195.34558"
           style="stroke:#000000"
           id="use22" />
        <use
           xlink:href="#mc42334258b"
           x="197.23759"
           y="199.1028"
           style="stroke:#000000"
           id="use23" />
        <use
           xlink:href="#mc42334258b"
           x="223.8878"
           y="193.83647"
           style="stroke:#000000"
           id="use24" />
        <use
           xlink:href="#mc42334258b"
           x="201.91689"
           y="191.62239"
           style="stroke:#000000"
           id="use25" />
        <use
           xlink:href="#mc42334258b"
           x="209.78825"
           y="180.58623"
           style="stroke:#000000"
           id="use26" />
        <use
           xlink:href="#mc42334258b"
           x="236.35501"
           y="188.00499"
           style="stroke:#000000"
           id="use27" />
        <use
           xlink:href="#mc42334258b"
           x="225.44135"
           y="189.33899"
           style="stroke:#000000"
           id="use28" />
        <use
           xlink:href="#mc42334258b"
           x="219.86897"
           y="183.29425"
           style="stroke:#000000"
           id="use29" />
        <use
           xlink:href="#mc42334258b"
           x="221.49312"
           y="175.82204"
           style="stroke:#000000"
           id="use30" />
        <use
           xlink:href="#mc42334258b"
           x="219.68465"
           y="196.75671"
           style="stroke:#000000"
           id="use31" />
        <use
           xlink:href="#mc42334258b"
           x="231.00667"
           y="182.25734"
           style="stroke:#000000"
           id="use32" />
        <use
           xlink:href="#mc42334258b"
           x="231.30023"
           y="187.73055"
           style="stroke:#000000"
           id="use33" />
        <use
           xlink:href="#mc42334258b"
           x="259.38104"
           y="165.23714"
           style="stroke:#000000"
           id="use34" />
        <use
           xlink:href="#mc42334258b"
           x="234.57712"
           y="173.55852"
           style="stroke:#000000"
           id="use35" />
        <use
           xlink:href="#mc42334258b"
           x="238.02821"
           y="170.2749"
           style="stroke:#000000"
           id="use36" />
        <use
           xlink:href="#mc42334258b"
           x="239.06729"
           y="180.03615"
           style="stroke:#000000"
           id="use37" />
        <use
           xlink:href="#mc42334258b"
           x="246.6525"
           y="175.32011"
           style="stroke:#000000"
           id="use38" />
        <use
           xlink:href="#mc42334258b"
           x="244.26469"
           y="168.85466"
           style="stroke:#000000"
           id="use39" />
        <use
           xlink:href="#mc42334258b"
           x="247.79906"
           y="164.58629"
           style="stroke:#000000"
           id="use40" />
        <use
           xlink:href="#mc42334258b"
           x="255.73962"
           y="166.17676"
           style="stroke:#000000"
           id="use41" />
        <use
           xlink:href="#mc42334258b"
           x="262.10593"
           y="166.40736"
           style="stroke:#000000"
           id="use42" />
        <use
           xlink:href="#mc42334258b"
           x="263.64993"
           y="164.81364"
           style="stroke:#000000"
           id="use43" />
        <use
           xlink:href="#mc42334258b"
           x="276.39551"
           y="162.65913"
           style="stroke:#000000"
           id="use44" />
        <use
           xlink:href="#mc42334258b"
           x="264.81168"
           y="164.42975"
           style="stroke:#000000"
           id="use45" />
        <use
           xlink:href="#mc42334258b"
           x="278.13626"
           y="153.38457"
           style="stroke:#000000"
           id="use46" />
        <use
           xlink:href="#mc42334258b"
           x="275.18729"
           y="158.40791"
           style="stroke:#000000"
           id="use47" />
        <use
           xlink:href="#mc42334258b"
           x="281.00815"
           y="158.33009"
           style="stroke:#000000"
           id="use48" />
        <use
           xlink:href="#mc42334258b"
           x="266.29532"
           y="151.95761"
           style="stroke:#000000"
           id="use49" />
        <use
           xlink:href="#mc42334258b"
           x="284.41071"
           y="154.78273"
           style="stroke:#000000"
           id="use50" />
        <use
           xlink:href="#mc42334258b"
           x="281.06635"
           y="151.43973"
           style="stroke:#000000"
           id="use51" />
        <use
           xlink:href="#mc42334258b"
           x="291.87201"
           y="144.04773"
           style="stroke:#000000"
           id="use52" />
        <use
           xlink:href="#mc42334258b"
           x="293.91617"
           y="149.9572"
           style="stroke:#000000"
           id="use53" />
        <use
           xlink:href="#mc42334258b"
           x="298.36099"
           y="143.56267"
           style="stroke:#000000"
           id="use54" />
        <use
           xlink:href="#mc42334258b"
           x="324.01172"
           y="146.67548"
           style="stroke:#000000"
           id="use55" />
        <use
           xlink:href="#mc42334258b"
           x="304.46552"
           y="145.63841"
           style="stroke:#000000"
           id="use56" />
        <use
           xlink:href="#mc42334258b"
           x="299.58118"
           y="124.77175"
           style="stroke:#000000"
           id="use57" />
        <use
           xlink:href="#mc42334258b"
           x="308.87372"
           y="146.49167"
           style="stroke:#000000"
           id="use58" />
        <use
           xlink:href="#mc42334258b"
           x="310.76245"
           y="123.42952"
           style="stroke:#000000"
           id="use59" />
        <use
           xlink:href="#mc42334258b"
           x="313.03931"
           y="136.94893"
           style="stroke:#000000"
           id="use60" />
        <use
           xlink:href="#mc42334258b"
           x="318.50406"
           y="132.46492"
           style="stroke:#000000"
           id="use61" />
        <use
           xlink:href="#mc42334258b"
           x="319.56396"
           y="127.58045"
           style="stroke:#000000"
           id="use62" />
        <use
           xlink:href="#mc42334258b"
           x="325.85248"
           y="126.86066"
           style="stroke:#000000"
           id="use63" />
        <use
           xlink:href="#mc42334258b"
           x="329.56143"
           y="129.9718"
           style="stroke:#000000"
           id="use64" />
        <use
           xlink:href="#mc42334258b"
           x="326.35764"
           y="121.13789"
           style="stroke:#000000"
           id="use65" />
        <use
           xlink:href="#mc42334258b"
           x="331.85944"
           y="122.93707"
           style="stroke:#000000"
           id="use66" />
        <use
           xlink:href="#mc42334258b"
           x="205.07668"
           y="289.40976"
           style="stroke:#000000"
           id="use67" />
        <use
           xlink:href="#mc42334258b"
           x="172.53229"
           y="276.23203"
           style="stroke:#000000"
           id="use68" />
        <use
           xlink:href="#mc42334258b"
           x="177.82465"
           y="258.1113"
           style="stroke:#000000"
           id="use69" />
        <use
           xlink:href="#mc42334258b"
           x="179.57347"
           y="263.28891"
           style="stroke:#000000"
           id="use70" />
        <use
           xlink:href="#mc42334258b"
           x="181.30692"
           y="258.15201"
           style="stroke:#000000"
           id="use71" />
        <use
           xlink:href="#mc42334258b"
           x="186.0359"
           y="254.99942"
           style="stroke:#000000"
           id="use72" />
        <use
           xlink:href="#mc42334258b"
           x="187.87047"
           y="254.0253"
           style="stroke:#000000"
           id="use73" />
        <use
           xlink:href="#mc42334258b"
           x="189.83807"
           y="254.2663"
           style="stroke:#000000"
           id="use74" />
        <use
           xlink:href="#mc42334258b"
           x="192.90643"
           y="239.83275"
           style="stroke:#000000"
           id="use75" />
        <use
           xlink:href="#mc42334258b"
           x="195.56544"
           y="232.02556"
           style="stroke:#000000"
           id="use76" />
        <use
           xlink:href="#mc42334258b"
           x="198.66328"
           y="227.69513"
           style="stroke:#000000"
           id="use77" />
        <use
           xlink:href="#mc42334258b"
           x="203.8078"
           y="226.91911"
           style="stroke:#000000"
           id="use78" />
        <use
           xlink:href="#mc42334258b"
           x="203.94633"
           y="220.36119"
           style="stroke:#000000"
           id="use79" />
        <use
           xlink:href="#mc42334258b"
           x="209.02582"
           y="220.51624"
           style="stroke:#000000"
           id="use80" />
        <use
           xlink:href="#mc42334258b"
           x="212.86803"
           y="206.82761"
           style="stroke:#000000"
           id="use81" />
        <use
           xlink:href="#mc42334258b"
           x="215.63872"
           y="209.11307"
           style="stroke:#000000"
           id="use82" />
        <use
           xlink:href="#mc42334258b"
           x="215.04503"
           y="204.05783"
           style="stroke:#000000"
           id="use83" />
        <use
           xlink:href="#mc42334258b"
           x="205.34723"
           y="216.58871"
           style="stroke:#000000"
           id="use84" />
        <use
           xlink:href="#mc42334258b"
           x="223.21342"
           y="186.7502"
           style="stroke:#000000"
           id="use85" />
        <use
           xlink:href="#mc42334258b"
           x="228.14728"
           y="180.68059"
           style="stroke:#000000"
           id="use86" />
        <use
           xlink:href="#mc42334258b"
           x="231.07683"
           y="204.9713"
           style="stroke:#000000"
           id="use87" />
        <use
           xlink:href="#mc42334258b"
           x="233.86905"
           y="172.82413"
           style="stroke:#000000"
           id="use88" />
        <use
           xlink:href="#mc42334258b"
           x="235.77876"
           y="168.88763"
           style="stroke:#000000"
           id="use89" />
        <use
           xlink:href="#mc42334258b"
           x="239.31783"
           y="167.22618"
           style="stroke:#000000"
           id="use90" />
        <use
           xlink:href="#mc42334258b"
           x="241.66098"
           y="160.8692"
           style="stroke:#000000"
           id="use91" />
        <use
           xlink:href="#mc42334258b"
           x="242.75887"
           y="158.10619"
           style="stroke:#000000"
           id="use92" />
        <use
           xlink:href="#mc42334258b"
           x="249.30008"
           y="120.3205"
           style="stroke:#000000"
           id="use93" />
        <use
           xlink:href="#mc42334258b"
           x="247.48752"
           y="143.24289"
           style="stroke:#000000"
           id="use94" />
        <use
           xlink:href="#mc42334258b"
           x="244.64615"
           y="142.75008"
           style="stroke:#000000"
           id="use95" />
        <use
           xlink:href="#mc42334258b"
           x="255.29031"
           y="131.11954"
           style="stroke:#000000"
           id="use96" />
        <use
           xlink:href="#mc42334258b"
           x="247.49924"
           y="125.89685"
           style="stroke:#000000"
           id="use97" />
        <use
           xlink:href="#mc42334258b"
           x="261.78723"
           y="126.49424"
           style="stroke:#000000"
           id="use98" />
        <use
           xlink:href="#mc42334258b"
           x="252.28062"
           y="126.29817"
           style="stroke:#000000"
           id="use99" />
        <use
           xlink:href="#mc42334258b"
           x="267.18204"
           y="96.849106"
           style="stroke:#000000"
           id="use100" />
        <use
           xlink:href="#mc42334258b"
           x="270.99438"
           y="121.31699"
           style="stroke:#000000"
           id="use101" />
        <use
           xlink:href="#mc42334258b"
           x="271.49237"
           y="104.70811"
           style="stroke:#000000"
           id="use102" />
        <use
           xlink:href="#mc42334258b"
           x="275.80173"
           y="97.037453"
           style="stroke:#000000"
           id="use103" />
        <use
           xlink:href="#mc42334258b"
           x="277.45264"
           y="89.716461"
           style="stroke:#000000"
           id="use104" />
        <use
           xlink:href="#mc42334258b"
           x="271.64069"
           y="92.83548"
           style="stroke:#000000"
           id="use105" />
        <use
           xlink:href="#mc42334258b"
           x="288.02887"
           y="79.681007"
           style="stroke:#000000"
           id="use106" />
        <use
           xlink:href="#mc42334258b"
           x="288.54425"
           y="76.749786"
           style="stroke:#000000"
           id="use107" />
        <use
           xlink:href="#mc42334258b"
           x="293.74539"
           y="74.33622"
           style="stroke:#000000"
           id="use108" />
        <use
           xlink:href="#mc42334258b"
           x="296.72192"
           y="66.638588"
           style="stroke:#000000"
           id="use109" />
        <use
           xlink:href="#mc42334258b"
           x="298.90851"
           y="63.329445"
           style="stroke:#000000"
           id="use110" />
        <use
           xlink:href="#mc42334258b"
           x="302.35706"
           y="53.568001"
           style="stroke:#000000"
           id="use111" />
      </g>
    </g>
    <g
       id="patch_3">
      <path
         d="m 277.53488,133.15312 -4.20761,8.41523 -1.40254,-1.40254 -35.06346,35.06346 -1.40254,-1.40254 35.06346,-35.06346 -1.40254,-1.40254 z"
         clip-path="url(#p8ad0f25cf7)"
         style="fill:#3cb371;stroke:#3cb371;stroke-linejoin:miter"
         id="path111" />
    </g>
    <g
       id="patch_4">
      <path
         d="m 277.53488,215.90288 -8.41523,-4.20761 1.40254,-1.40254 -35.06346,-35.06346 1.40254,-1.40254 35.06346,35.06346 1.40254,-1.40254 z"
         clip-path="url(#p8ad0f25cf7)"
         style="fill:#3cb371;stroke:#3cb371;stroke-linejoin:miter"
         id="path112" />
    </g>
    <g
       id="matplotlib.axis_1">
      <g
         id="xtick_1">
        <g
           id="line2d_1">
          <defs
             id="defs112">
            <path
               id="m1229713745"
               d="M 0,0 V 3.5"
               style="stroke:#000000;stroke-width:0.8" />
          </defs>
          <g
             id="g112">
            <use
               xlink:href="#m1229713745"
               x="136.98555"
               y="307.58401"
               style="stroke:#000000;stroke-width:0.8"
               id="use112" />
          </g>
        </g>
        <g
           id="text_1">
          <!-- −2 -->
          <g
             transform="matrix(0.1,0,0,-0.1,129.61446,322.18244)"
             id="g114">
            <defs
               id="defs113">
              <path
                 id="DejaVuSans-2212"
                 d="M 678,2272 H 4684 V 1741 H 678 Z"
                 transform="scale(0.015625)" />
              <path
                 id="DejaVuSans-32"
                 d="M 1228,531 H 3431 V 0 H 469 v 531 q 359,372 979,998 621,627 780,809 303,340 423,576 121,236 121,464 0,372 -261,606 -261,235 -680,235 -297,0 -627,-103 -329,-103 -704,-313 v 638 q 381,153 712,231 332,78 607,78 725,0 1156,-363 431,-362 431,-968 0,-288 -108,-546 -107,-257 -392,-607 -78,-91 -497,-524 Q 1991,1309 1228,531 Z"
                 transform="scale(0.015625)" />
            </defs>
            <use
               xlink:href="#DejaVuSans-2212"
               id="use113" />
            <use
               xlink:href="#DejaVuSans-32"
               x="83.789062"
               id="use114" />
          </g>
        </g>
      </g>
      <g
         id="xtick_2">
        <g
           id="line2d_2">
          <g
             id="g115">
            <use
               xlink:href="#m1229713745"
               x="186.57278"
               y="307.58401"
               style="stroke:#000000;stroke-width:0.8"
               id="use115" />
          </g>
        </g>
        <g
           id="text_2">
          <!-- −1 -->
          <g
             transform="matrix(0.1,0,0,-0.1,179.20168,322.18244)"
             id="g117">
            <defs
               id="defs115">
              <path
                 id="DejaVuSans-31"
                 d="M 794,531 H 1825 V 4091 L 703,3866 v 575 l 1116,225 h 631 V 531 H 3481 V 0 H 794 Z"
                 transform="scale(0.015625)" />
            </defs>
            <use
               xlink:href="#DejaVuSans-2212"
               id="use116" />
            <use
               xlink:href="#DejaVuSans-31"
               x="83.789062"
               id="use117" />
          </g>
        </g>
      </g>
      <g
         id="xtick_3">
        <g
           id="line2d_3">
          <g
             id="g118">
            <use
               xlink:href="#m1229713745"
               x="236.16"
               y="307.58401"
               style="stroke:#000000;stroke-width:0.8"
               id="use118" />
          </g>
        </g>
        <g
           id="text_3">
          <!-- 0 -->
          <g
             transform="matrix(0.1,0,0,-0.1,232.97875,322.18244)"
             id="g119">
            <defs
               id="defs118">
              <path
                 id="DejaVuSans-30"
                 d="m 2034,4250 q -487,0 -733,-480 -245,-479 -245,-1442 0,-959 245,-1439 246,-480 733,-480 491,0 736,480 246,480 246,1439 0,963 -246,1442 -245,480 -736,480 z m 0,500 q 785,0 1199,-621 414,-620 414,-1801 0,-1178 -414,-1799 -414,-620 -1199,-620 -784,0 -1198,620 -414,621 -414,1799 0,1181 414,1801 414,621 1198,621 z"
                 transform="scale(0.015625)" />
            </defs>
            <use
               xlink:href="#DejaVuSans-30"
               id="use119" />
          </g>
        </g>
      </g>
      <g
         id="xtick_4">
        <g
           id="line2d_4">
          <g
             id="g120">
            <use
               xlink:href="#m1229713745"
               x="285.74722"
               y="307.58401"
               style="stroke:#000000;stroke-width:0.8"
               id="use120" />
          </g>
        </g>
        <g
           id="text_4">
          <!-- 1 -->
          <g
             transform="matrix(0.1,0,0,-0.1,282.56597,322.18244)"
             id="g121">
            <use
               xlink:href="#DejaVuSans-31"
               id="use121" />
          </g>
        </g>
      </g>
      <g
         id="xtick_5">
        <g
           id="line2d_5">
          <g
             id="g122">
            <use
               xlink:href="#m1229713745"
               x="335.33444"
               y="307.58401"
               style="stroke:#000000;stroke-width:0.8"
               id="use122" />
          </g>
        </g>
        <g
           id="text_5">
          <!-- 2 -->
          <g
             transform="matrix(0.1,0,0,-0.1,332.1532,322.18244)"
             id="g123">
            <use
               xlink:href="#DejaVuSans-32"
               id="use123" />
          </g>
        </g>
      </g>
      <g
         id="text_6">
        <!-- x position -->
        <g
           transform="matrix(0.1,0,0,-0.1,211.80687,335.86056)"
           id="g133">
          <defs
             id="defs123">
            <path
               id="DejaVuSans-78"
               d="M 3513,3500 2247,1797 3578,0 H 2900 L 1881,1375 863,0 H 184 L 1544,1831 300,3500 h 678 l 928,-1247 928,1247 z"
               transform="scale(0.015625)" />
            <path
               id="DejaVuSans-20"
               transform="scale(0.015625)"
               d="" />
            <path
               id="DejaVuSans-70"
               d="M 1159,525 V -1331 H 581 v 4831 h 578 v -531 q 182,312 458,463 277,152 661,152 638,0 1036,-506 399,-506 399,-1331 0,-825 -399,-1332 -398,-506 -1036,-506 -384,0 -661,152 -276,152 -458,464 z m 1957,1222 q 0,634 -261,995 -261,361 -717,361 -457,0 -718,-361 -261,-361 -261,-995 0,-634 261,-995 261,-361 718,-361 456,0 717,361 261,361 261,995 z"
               transform="scale(0.015625)" />
            <path
               id="DejaVuSans-6f"
               d="m 1959,3097 q -462,0 -731,-361 -269,-361 -269,-989 0,-628 267,-989 268,-361 733,-361 460,0 728,362 269,363 269,988 0,622 -269,986 -268,364 -728,364 z m 0,487 q 750,0 1178,-488 429,-487 429,-1349 Q 3566,888 3137,398 2709,-91 1959,-91 1206,-91 779,398 353,888 353,1747 q 0,862 426,1349 427,488 1180,488 z"
               transform="scale(0.015625)" />
            <path
               id="DejaVuSans-73"
               d="m 2834,3397 v -544 q -243,125 -506,187 -262,63 -544,63 -428,0 -642,-131 -214,-131 -214,-394 0,-200 153,-314 153,-114 616,-217 l 197,-44 q 612,-131 870,-370 258,-239 258,-667 0,-488 -386,-773 Q 2250,-91 1575,-91 1294,-91 989,-36 684,19 347,128 v 594 q 319,-166 628,-249 309,-82 613,-82 406,0 624,139 219,139 219,392 0,234 -158,359 -157,125 -692,241 l -200,47 q -534,112 -772,345 -237,233 -237,639 0,494 350,762 350,269 994,269 318,0 599,-47 282,-46 519,-140 z"
               transform="scale(0.015625)" />
            <path
               id="DejaVuSans-69"
               d="m 603,3500 h 575 V 0 H 603 Z m 0,1363 h 575 V 4134 H 603 Z"
               transform="scale(0.015625)" />
            <path
               id="DejaVuSans-74"
               d="M 1172,4494 V 3500 H 2356 V 3053 H 1172 V 1153 q 0,-428 117,-550 117,-122 477,-122 h 590 V 0 H 1766 Q 1100,0 847,248 594,497 594,1153 V 3053 H 172 v 447 h 422 v 994 z"
               transform="scale(0.015625)" />
            <path
               id="DejaVuSans-6e"
               d="M 3513,2113 V 0 h -575 v 2094 q 0,497 -194,743 -194,247 -581,247 -466,0 -735,-297 -269,-296 -269,-809 V 0 H 581 v 3500 h 578 v -544 q 207,316 486,472 280,156 646,156 603,0 912,-373 310,-373 310,-1098 z"
               transform="scale(0.015625)" />
          </defs>
          <use
             xlink:href="#DejaVuSans-78"
             id="use124" />
          <use
             xlink:href="#DejaVuSans-20"
             x="59.179688"
             id="use125" />
          <use
             xlink:href="#DejaVuSans-70"
             x="90.966797"
             id="use126" />
          <use
             xlink:href="#DejaVuSans-6f"
             x="154.44336"
             id="use127" />
          <use
             xlink:href="#DejaVuSans-73"
             x="215.625"
             id="use128" />
          <use
             xlink:href="#DejaVuSans-69"
             x="267.72461"
             id="use129" />
          <use
             xlink:href="#DejaVuSans-74"
             x="295.50781"
             id="use130" />
          <use
             xlink:href="#DejaVuSans-69"
             x="334.7168"
             id="use131" />
          <use
             xlink:href="#DejaVuSans-6f"
             x="362.5"
             id="use132" />
          <use
             xlink:href="#DejaVuSans-6e"
             x="423.68164"
             id="use133" />
        </g>
      </g>
    </g>
    <g
       id="matplotlib.axis_2">
      <g
         id="ytick_1">
        <g
           id="line2d_6">
          <defs
             id="defs133">
            <path
               id="mcc11b011bc"
               d="M 0,0 H -3.5"
               style="stroke:#000000;stroke-width:0.8" />
          </defs>
          <g
             id="g134">
            <use
               xlink:href="#mcc11b011bc"
               x="103.104"
               y="273.70245"
               style="stroke:#000000;stroke-width:0.8"
               id="use134" />
          </g>
        </g>
        <g
           id="text_7">
          <!-- −2 -->
          <g
             transform="matrix(0.1,0,0,-0.1,81.361813,277.50166)"
             id="g136">
            <use
               xlink:href="#DejaVuSans-2212"
               id="use135" />
            <use
               xlink:href="#DejaVuSans-32"
               x="83.789062"
               id="use136" />
          </g>
        </g>
      </g>
      <g
         id="ytick_2">
        <g
           id="line2d_7">
          <g
             id="g137">
            <use
               xlink:href="#mcc11b011bc"
               x="103.104"
               y="224.11522"
               style="stroke:#000000;stroke-width:0.8"
               id="use137" />
          </g>
        </g>
        <g
           id="text_8">
          <!-- −1 -->
          <g
             transform="matrix(0.1,0,0,-0.1,81.361813,227.91444)"
             id="g139">
            <use
               xlink:href="#DejaVuSans-2212"
               id="use138" />
            <use
               xlink:href="#DejaVuSans-31"
               x="83.789062"
               id="use139" />
          </g>
        </g>
      </g>
      <g
         id="ytick_3">
        <g
           id="line2d_8">
          <g
             id="g140">
            <use
               xlink:href="#mcc11b011bc"
               x="103.104"
               y="174.528"
               style="stroke:#000000;stroke-width:0.8"
               id="use140" />
          </g>
        </g>
        <g
           id="text_9">
          <!-- 0 -->
          <g
             transform="matrix(0.1,0,0,-0.1,89.7415,178.32722)"
             id="g141">
            <use
               xlink:href="#DejaVuSans-30"
               id="use141" />
          </g>
        </g>
      </g>
      <g
         id="ytick_4">
        <g
           id="line2d_9">
          <g
             id="g142">
            <use
               xlink:href="#mcc11b011bc"
               x="103.104"
               y="124.94078"
               style="stroke:#000000;stroke-width:0.8"
               id="use142" />
          </g>
        </g>
        <g
           id="text_10">
          <!-- 1 -->
          <g
             transform="matrix(0.1,0,0,-0.1,89.7415,128.74)"
             id="g143">
            <use
               xlink:href="#DejaVuSans-31"
               id="use143" />
          </g>
        </g>
      </g>
      <g
         id="ytick_5">
        <g
           id="line2d_10">
          <g
             id="g144">
            <use
               xlink:href="#mcc11b011bc"
               x="103.104"
               y="75.353554"
               style="stroke:#000000;stroke-width:0.8"
               id="use144" />
          </g>
        </g>
        <g
           id="text_11">
          <!-- 2 -->
          <g
             transform="matrix(0.1,0,0,-0.1,89.7415,79.152773)"
             id="g145">
            <use
               xlink:href="#DejaVuSans-32"
               id="use145" />
          </g>
        </g>
      </g>
      <g
         id="text_12">
        <!-- y position -->
        <g
           transform="matrix(0,-0.1,-0.1,0,75.282125,198.88112)"
           id="g155">
          <defs
             id="defs145">
            <path
               id="DejaVuSans-79"
               d="m 2059,-325 q -243,-625 -475,-815 -231,-191 -618,-191 H 506 v 481 h 338 q 237,0 368,113 132,112 291,531 L 1606,56 191,3500 H 800 L 1894,763 2988,3500 h 609 z"
               transform="scale(0.015625)" />
          </defs>
          <use
             xlink:href="#DejaVuSans-79"
             id="use146" />
          <use
             xlink:href="#DejaVuSans-20"
             x="59.179688"
             id="use147" />
          <use
             xlink:href="#DejaVuSans-70"
             x="90.966797"
             id="use148" />
          <use
             xlink:href="#DejaVuSans-6f"
             x="154.44336"
             id="use149" />
          <use
             xlink:href="#DejaVuSans-73"
             x="215.625"
             id="use150" />
          <use
             xlink:href="#DejaVuSans-69"
             x="267.72461"
             id="use151" />
          <use
             xlink:href="#DejaVuSans-74"
             x="295.50781"
             id="use152" />
          <use
             xlink:href="#DejaVuSans-69"
             x="334.7168"
             id="use153" />
          <use
             xlink:href="#DejaVuSans-6f"
             x="362.5"
             id="use154" />
          <use
             xlink:href="#DejaVuSans-6e"
             x="423.68164"
             id="use155" />
        </g>
      </g>
    </g>
    <g
       id="patch_5">
      <path
         d="M 103.104,307.584 V 41.472"
         style="fill:none;stroke:#000000;stroke-width:0.8;stroke-linecap:square;stroke-linejoin:miter"
         id="path155" />
    </g>
    <g
       id="patch_6">
      <path
         d="M 369.216,307.584 V 41.472"
         style="fill:none;stroke:#000000;stroke-width:0.8;stroke-linecap:square;stroke-linejoin:miter"
         id="path156" />
    </g>
    <g
       id="patch_7">
      <path
         d="M 103.104,307.584 H 369.216"
         style="fill:none;stroke:#000000;stroke-width:0.8;stroke-linecap:square;stroke-linejoin:miter"
         id="path157" />
    </g>
    <g
       id="patch_8">
      <path
         d="M 103.104,41.472 H 369.216"
         style="fill:none;stroke:#000000;stroke-width:0.8;stroke-linecap:square;stroke-linejoin:miter"
         id="path158" />
    </g>
    <g
       id="text_13">
      <!-- PC1 -->
      <g
         style="fill:#3cb371"
         transform="matrix(0.12,0,0,-0.12,288.75519,121.93281)"
         id="g160">
        <defs
           id="defs158">
          <path
             id="DejaVuSans-50"
             d="M 1259,4147 V 2394 h 794 q 441,0 681,228 241,228 241,650 0,419 -241,647 -240,228 -681,228 z m -631,519 h 1425 q 785,0 1186,-355 402,-355 402,-1039 0,-691 -402,-1044 -401,-353 -1186,-353 H 1259 V 0 H 628 Z"
             transform="scale(0.015625)" />
          <path
             id="DejaVuSans-43"
             d="m 4122,4306 v -665 q -319,297 -680,443 -361,147 -767,147 -800,0 -1225,-489 -425,-489 -425,-1414 0,-922 425,-1411 425,-489 1225,-489 406,0 767,147 361,147 680,444 V 359 Q 3791,134 3420,21 3050,-91 2638,-91 1578,-91 968,557 359,1206 359,2328 q 0,1125 609,1773 610,649 1670,649 418,0 788,-111 371,-111 696,-333 z"
             transform="scale(0.015625)" />
        </defs>
        <use
           xlink:href="#DejaVuSans-50"
           id="use158" />
        <use
           xlink:href="#DejaVuSans-43"
           x="60.302734"
           id="use159" />
        <use
           xlink:href="#DejaVuSans-31"
           x="130.12695"
           id="use160" />
      </g>
    </g>
    <g
       id="text_14">
      <!-- PC2 -->
      <g
         style="fill:#3cb371"
         transform="matrix(0.12,0,0,-0.12,288.75519,227.12319)"
         id="g163">
        <use
           xlink:href="#DejaVuSans-50"
           id="use161" />
        <use
           xlink:href="#DejaVuSans-43"
           x="60.302734"
           id="use162" />
        <use
           xlink:href="#DejaVuSans-32"
           x="130.12695"
           id="use163" />
      </g>
    </g>
  </g>
  <defs
     id="defs163">
    <clipPath
       id="p8ad0f25cf7">
      <rect
         x="103.104"
         y="41.472"
         width="266.112"
         height="266.112"
         id="rect163" />
    </clipPath>
  </defs>
</svg>
