<?xml version="1.0" encoding="UTF-8" standalone="no"?>
<svg
   width="301.93231pt"
   height="296.86826pt"
   viewBox="0 0 301.93232 296.86825"
   version="1.1"
   id="svg118"
   sodipodi:docname="some_nice_data_org.svg"
   inkscape:version="1.3 (0e150ed6c4, 2023-07-21)"
   xmlns:inkscape="http://www.inkscape.org/namespaces/inkscape"
   xmlns:sodipodi="http://sodipodi.sourceforge.net/DTD/sodipodi-0.dtd"
   xmlns:xlink="http://www.w3.org/1999/xlink"
   xmlns="http://www.w3.org/2000/svg"
   xmlns:svg="http://www.w3.org/2000/svg"
   xmlns:rdf="http://www.w3.org/1999/02/22-rdf-syntax-ns#"
   xmlns:cc="http://creativecommons.org/ns#"
   xmlns:dc="http://purl.org/dc/elements/1.1/">
  <sodipodi:namedview
     id="namedview118"
     pagecolor="#ffffff"
     bordercolor="#666666"
     borderopacity="1.0"
     inkscape:showpageshadow="2"
     inkscape:pageopacity="0.0"
     inkscape:pagecheckerboard="0"
     inkscape:deskcolor="#d1d1d1"
     inkscape:document-units="pt"
     inkscape:zoom="1.7599826"
     inkscape:cx="217.0476"
     inkscape:cy="175.85401"
     inkscape:window-width="1920"
     inkscape:window-height="1015"
     inkscape:window-x="0"
     inkscape:window-y="37"
     inkscape:window-maximized="1"
     inkscape:current-layer="svg118" />
  <metadata
     id="metadata1">
    <rdf:RDF>
      <cc:Work>
        <dc:type
           rdf:resource="http://purl.org/dc/dcmitype/StillImage" />
        <dc:date>2024-03-13T09:52:28.069033</dc:date>
        <dc:format>image/svg+xml</dc:format>
        <dc:creator>
          <cc:Agent>
            <dc:title>Matplotlib v3.8.2, https://matplotlib.org/</dc:title>
          </cc:Agent>
        </dc:creator>
      </cc:Work>
    </rdf:RDF>
  </metadata>
  <defs
     id="defs1">
    <style
       type="text/css"
       id="style1">*{stroke-linejoin: round; stroke-linecap: butt}</style>
  </defs>
  <g
     id="axes_1"
     transform="translate(-67.683687,-41.072)">
    <g
       id="patch_2">
      <path
         d="M 103.104,307.584 H 369.216 V 41.472 H 103.104 Z"
         style="fill:#ffffff"
         id="path2" />
    </g>
    <g
       id="PathCollection_1">
      <defs
         id="defs2">
        <path
           id="m27aa1c6508"
           d="m 0,1.581139 c 0.419323,0 0.821528,-0.166599 1.118034,-0.463105 C 1.41454,0.821528 1.581139,0.419323 1.581139,0 1.581139,-0.419323 1.41454,-0.821528 1.118034,-1.118034 0.821528,-1.41454 0.419323,-1.581139 0,-1.581139 c -0.419323,0 -0.821528,0.166599 -1.118034,0.463105 C -1.41454,-0.821528 -1.581139,-0.419323 -1.581139,0 c 0,0.419323 0.166599,0.821528 0.463105,1.118034 C -0.821528,1.41454 -0.419323,1.581139 0,1.581139 Z"
           style="stroke:#000000" />
      </defs>
      <g
         clip-path="url(#p8697c96e16)"
         id="g61">
        <use
           xlink:href="#m27aa1c6508"
           x="138.35849"
           y="265.39294"
           style="stroke:#000000"
           id="use2" />
        <use
           xlink:href="#m27aa1c6508"
           x="143.79158"
           y="265.33148"
           style="stroke:#000000"
           id="use3" />
        <use
           xlink:href="#m27aa1c6508"
           x="126.74988"
           y="258.04263"
           style="stroke:#000000"
           id="use4" />
        <use
           xlink:href="#m27aa1c6508"
           x="146.91783"
           y="256.82166"
           style="stroke:#000000"
           id="use5" />
        <use
           xlink:href="#m27aa1c6508"
           x="146.74544"
           y="253.72832"
           style="stroke:#000000"
           id="use6" />
        <use
           xlink:href="#m27aa1c6508"
           x="158.23747"
           y="248.36377"
           style="stroke:#000000"
           id="use7" />
        <use
           xlink:href="#m27aa1c6508"
           x="160.8511"
           y="244.50972"
           style="stroke:#000000"
           id="use8" />
        <use
           xlink:href="#m27aa1c6508"
           x="160.07835"
           y="244.77203"
           style="stroke:#000000"
           id="use9" />
        <use
           xlink:href="#m27aa1c6508"
           x="174.17126"
           y="246.69069"
           style="stroke:#000000"
           id="use10" />
        <use
           xlink:href="#m27aa1c6508"
           x="172.72313"
           y="248.13422"
           style="stroke:#000000"
           id="use11" />
        <use
           xlink:href="#m27aa1c6508"
           x="171.17453"
           y="244.93417"
           style="stroke:#000000"
           id="use12" />
        <use
           xlink:href="#m27aa1c6508"
           x="180.07117"
           y="240.17229"
           style="stroke:#000000"
           id="use13" />
        <use
           xlink:href="#m27aa1c6508"
           x="179.84465"
           y="227.15073"
           style="stroke:#000000"
           id="use14" />
        <use
           xlink:href="#m27aa1c6508"
           x="189.41183"
           y="234.28458"
           style="stroke:#000000"
           id="use15" />
        <use
           xlink:href="#m27aa1c6508"
           x="185.28119"
           y="232.19096"
           style="stroke:#000000"
           id="use16" />
        <use
           xlink:href="#m27aa1c6508"
           x="187.95781"
           y="251.2406"
           style="stroke:#000000"
           id="use17" />
        <use
           xlink:href="#m27aa1c6508"
           x="219.84329"
           y="219.35672"
           style="stroke:#000000"
           id="use18" />
        <use
           xlink:href="#m27aa1c6508"
           x="194.45476"
           y="217.36464"
           style="stroke:#000000"
           id="use19" />
        <use
           xlink:href="#m27aa1c6508"
           x="194.1004"
           y="210.68628"
           style="stroke:#000000"
           id="use20" />
        <use
           xlink:href="#m27aa1c6508"
           x="202.35698"
           y="214.92294"
           style="stroke:#000000"
           id="use21" />
        <use
           xlink:href="#m27aa1c6508"
           x="168.13649"
           y="209.06599"
           style="stroke:#000000"
           id="use22" />
        <use
           xlink:href="#m27aa1c6508"
           x="204.93477"
           y="207.25092"
           style="stroke:#000000"
           id="use23" />
        <use
           xlink:href="#m27aa1c6508"
           x="239.4903"
           y="200.30719"
           style="stroke:#000000"
           id="use24" />
        <use
           xlink:href="#m27aa1c6508"
           x="208.35088"
           y="177.5632"
           style="stroke:#000000"
           id="use25" />
        <use
           xlink:href="#m27aa1c6508"
           x="219.96927"
           y="196.46747"
           style="stroke:#000000"
           id="use26" />
        <use
           xlink:href="#m27aa1c6508"
           x="213.75446"
           y="185.53023"
           style="stroke:#000000"
           id="use27" />
        <use
           xlink:href="#m27aa1c6508"
           x="221.1501"
           y="189.91064"
           style="stroke:#000000"
           id="use28" />
        <use
           xlink:href="#m27aa1c6508"
           x="209.04414"
           y="183.36559"
           style="stroke:#000000"
           id="use29" />
        <use
           xlink:href="#m27aa1c6508"
           x="231.98245"
           y="183.77617"
           style="stroke:#000000"
           id="use30" />
        <use
           xlink:href="#m27aa1c6508"
           x="252.93665"
           y="179.29443"
           style="stroke:#000000"
           id="use31" />
        <use
           xlink:href="#m27aa1c6508"
           x="231.63173"
           y="175.93246"
           style="stroke:#000000"
           id="use32" />
        <use
           xlink:href="#m27aa1c6508"
           x="230.75656"
           y="165.30261"
           style="stroke:#000000"
           id="use33" />
        <use
           xlink:href="#m27aa1c6508"
           x="246.62523"
           y="173.81378"
           style="stroke:#000000"
           id="use34" />
        <use
           xlink:href="#m27aa1c6508"
           x="270.94687"
           y="163.32971"
           style="stroke:#000000"
           id="use35" />
        <use
           xlink:href="#m27aa1c6508"
           x="252.43687"
           y="157.15073"
           style="stroke:#000000"
           id="use36" />
        <use
           xlink:href="#m27aa1c6508"
           x="257.71359"
           y="153.11064"
           style="stroke:#000000"
           id="use37" />
        <use
           xlink:href="#m27aa1c6508"
           x="246.48442"
           y="126.33112"
           style="stroke:#000000"
           id="use38" />
        <use
           xlink:href="#m27aa1c6508"
           x="261.60605"
           y="179.71413"
           style="stroke:#000000"
           id="use39" />
        <use
           xlink:href="#m27aa1c6508"
           x="256.60779"
           y="151.22656"
           style="stroke:#000000"
           id="use40" />
        <use
           xlink:href="#m27aa1c6508"
           x="227.1113"
           y="140.31308"
           style="stroke:#000000"
           id="use41" />
        <use
           xlink:href="#m27aa1c6508"
           x="256.79099"
           y="138.35135"
           style="stroke:#000000"
           id="use42" />
        <use
           xlink:href="#m27aa1c6508"
           x="269.99554"
           y="136.69275"
           style="stroke:#000000"
           id="use43" />
        <use
           xlink:href="#m27aa1c6508"
           x="280.77615"
           y="138.36421"
           style="stroke:#000000"
           id="use44" />
        <use
           xlink:href="#m27aa1c6508"
           x="305.92435"
           y="129.05939"
           style="stroke:#000000"
           id="use45" />
        <use
           xlink:href="#m27aa1c6508"
           x="281.67697"
           y="133.23064"
           style="stroke:#000000"
           id="use46" />
        <use
           xlink:href="#m27aa1c6508"
           x="278.75983"
           y="108.65891"
           style="stroke:#000000"
           id="use47" />
        <use
           xlink:href="#m27aa1c6508"
           x="305.43091"
           y="122.65969"
           style="stroke:#000000"
           id="use48" />
        <use
           xlink:href="#m27aa1c6508"
           x="296.54886"
           y="141.21123"
           style="stroke:#000000"
           id="use49" />
        <use
           xlink:href="#m27aa1c6508"
           x="290.32327"
           y="116.49401"
           style="stroke:#000000"
           id="use50" />
        <use
           xlink:href="#m27aa1c6508"
           x="296.81586"
           y="107.27129"
           style="stroke:#000000"
           id="use51" />
        <use
           xlink:href="#m27aa1c6508"
           x="305.37012"
           y="100.53998"
           style="stroke:#000000"
           id="use52" />
        <use
           xlink:href="#m27aa1c6508"
           x="307.75296"
           y="105.87311"
           style="stroke:#000000"
           id="use53" />
        <use
           xlink:href="#m27aa1c6508"
           x="304.54251"
           y="127.01237"
           style="stroke:#000000"
           id="use54" />
        <use
           xlink:href="#m27aa1c6508"
           x="312.65887"
           y="99.729408"
           style="stroke:#000000"
           id="use55" />
        <use
           xlink:href="#m27aa1c6508"
           x="309.02817"
           y="93.600449"
           style="stroke:#000000"
           id="use56" />
        <use
           xlink:href="#m27aa1c6508"
           x="327.55051"
           y="90.330688"
           style="stroke:#000000"
           id="use57" />
        <use
           xlink:href="#m27aa1c6508"
           x="322.67245"
           y="86.655121"
           style="stroke:#000000"
           id="use58" />
        <use
           xlink:href="#m27aa1c6508"
           x="327.16989"
           y="92.431816"
           style="stroke:#000000"
           id="use59" />
        <use
           xlink:href="#m27aa1c6508"
           x="327.61044"
           y="86.737144"
           style="stroke:#000000"
           id="use60" />
        <use
           xlink:href="#m27aa1c6508"
           x="324.54282"
           y="53.568001"
           style="stroke:#000000"
           id="use61" />
      </g>
    </g>
    <g
       id="matplotlib.axis_1">
      <g
         id="xtick_1">
        <g
           id="line2d_1">
          <defs
             id="defs61">
            <path
               id="m41f4ee8910"
               d="M 0,0 V 3.5"
               style="stroke:#000000;stroke-width:0.8" />
          </defs>
          <g
             id="g62">
            <use
               xlink:href="#m41f4ee8910"
               x="107.81823"
               y="307.58401"
               style="stroke:#000000;stroke-width:0.8"
               id="use62" />
          </g>
        </g>
        <g
           id="text_1">
          <!-- −4 -->
          <g
             transform="matrix(0.1,0,0,-0.1,100.44714,322.18244)"
             id="g64">
            <defs
               id="defs62">
              <path
                 id="DejaVuSans-2212"
                 d="M 678,2272 H 4684 V 1741 H 678 Z"
                 transform="scale(0.015625)" />
              <path
                 id="DejaVuSans-34"
                 d="M 2419,4116 825,1625 h 1594 z m -166,550 h 794 V 1625 h 666 V 1100 H 3047 V 0 H 2419 V 1100 H 313 v 609 z"
                 transform="scale(0.015625)" />
            </defs>
            <use
               xlink:href="#DejaVuSans-2212"
               id="use63" />
            <use
               xlink:href="#DejaVuSans-34"
               x="83.789062"
               id="use64" />
          </g>
        </g>
      </g>
      <g
         id="xtick_2">
        <g
           id="line2d_2">
          <g
             id="g65">
            <use
               xlink:href="#m41f4ee8910"
               x="171.98912"
               y="307.58401"
               style="stroke:#000000;stroke-width:0.8"
               id="use65" />
          </g>
        </g>
        <g
           id="text_2">
          <!-- −2 -->
          <g
             transform="matrix(0.1,0,0,-0.1,164.61802,322.18244)"
             id="g67">
            <defs
               id="defs65">
              <path
                 id="DejaVuSans-32"
                 d="M 1228,531 H 3431 V 0 H 469 v 531 q 359,372 979,998 621,627 780,809 303,340 423,576 121,236 121,464 0,372 -261,606 -261,235 -680,235 -297,0 -627,-103 -329,-103 -704,-313 v 638 q 381,153 712,231 332,78 607,78 725,0 1156,-363 431,-362 431,-968 0,-288 -108,-546 -107,-257 -392,-607 -78,-91 -497,-524 Q 1991,1309 1228,531 Z"
                 transform="scale(0.015625)" />
            </defs>
            <use
               xlink:href="#DejaVuSans-2212"
               id="use66" />
            <use
               xlink:href="#DejaVuSans-32"
               x="83.789062"
               id="use67" />
          </g>
        </g>
      </g>
      <g
         id="xtick_3">
        <g
           id="line2d_3">
          <g
             id="g68">
            <use
               xlink:href="#m41f4ee8910"
               x="236.16"
               y="307.58401"
               style="stroke:#000000;stroke-width:0.8"
               id="use68" />
          </g>
        </g>
        <g
           id="text_3">
          <!-- 0 -->
          <g
             transform="matrix(0.1,0,0,-0.1,232.97875,322.18244)"
             id="g69">
            <defs
               id="defs68">
              <path
                 id="DejaVuSans-30"
                 d="m 2034,4250 q -487,0 -733,-480 -245,-479 -245,-1442 0,-959 245,-1439 246,-480 733,-480 491,0 736,480 246,480 246,1439 0,963 -246,1442 -245,480 -736,480 z m 0,500 q 785,0 1199,-621 414,-620 414,-1801 0,-1178 -414,-1799 -414,-620 -1199,-620 -784,0 -1198,620 -414,621 -414,1799 0,1181 414,1801 414,621 1198,621 z"
                 transform="scale(0.015625)" />
            </defs>
            <use
               xlink:href="#DejaVuSans-30"
               id="use69" />
          </g>
        </g>
      </g>
      <g
         id="xtick_4">
        <g
           id="line2d_4">
          <g
             id="g70">
            <use
               xlink:href="#m41f4ee8910"
               x="300.33087"
               y="307.58401"
               style="stroke:#000000;stroke-width:0.8"
               id="use70" />
          </g>
        </g>
        <g
           id="text_4">
          <!-- 2 -->
          <g
             transform="matrix(0.1,0,0,-0.1,297.14963,322.18244)"
             id="g71">
            <use
               xlink:href="#DejaVuSans-32"
               id="use71" />
          </g>
        </g>
      </g>
      <g
         id="xtick_5">
        <g
           id="line2d_5">
          <g
             id="g72">
            <use
               xlink:href="#m41f4ee8910"
               x="364.50177"
               y="307.58401"
               style="stroke:#000000;stroke-width:0.8"
               id="use72" />
          </g>
        </g>
        <g
           id="text_5">
          <!-- 4 -->
          <g
             transform="matrix(0.1,0,0,-0.1,361.32052,322.18244)"
             id="g73">
            <use
               xlink:href="#DejaVuSans-34"
               id="use73" />
          </g>
        </g>
      </g>
      <g
         id="text_6">
        <!-- x position -->
        <g
           transform="matrix(0.1,0,0,-0.1,211.80687,335.86056)"
           id="g83">
          <defs
             id="defs73">
            <path
               id="DejaVuSans-78"
               d="M 3513,3500 2247,1797 3578,0 H 2900 L 1881,1375 863,0 H 184 L 1544,1831 300,3500 h 678 l 928,-1247 928,1247 z"
               transform="scale(0.015625)" />
            <path
               id="DejaVuSans-20"
               transform="scale(0.015625)"
               d="" />
            <path
               id="DejaVuSans-70"
               d="M 1159,525 V -1331 H 581 v 4831 h 578 v -531 q 182,312 458,463 277,152 661,152 638,0 1036,-506 399,-506 399,-1331 0,-825 -399,-1332 -398,-506 -1036,-506 -384,0 -661,152 -276,152 -458,464 z m 1957,1222 q 0,634 -261,995 -261,361 -717,361 -457,0 -718,-361 -261,-361 -261,-995 0,-634 261,-995 261,-361 718,-361 456,0 717,361 261,361 261,995 z"
               transform="scale(0.015625)" />
            <path
               id="DejaVuSans-6f"
               d="m 1959,3097 q -462,0 -731,-361 -269,-361 -269,-989 0,-628 267,-989 268,-361 733,-361 460,0 728,362 269,363 269,988 0,622 -269,986 -268,364 -728,364 z m 0,487 q 750,0 1178,-488 429,-487 429,-1349 Q 3566,888 3137,398 2709,-91 1959,-91 1206,-91 779,398 353,888 353,1747 q 0,862 426,1349 427,488 1180,488 z"
               transform="scale(0.015625)" />
            <path
               id="DejaVuSans-73"
               d="m 2834,3397 v -544 q -243,125 -506,187 -262,63 -544,63 -428,0 -642,-131 -214,-131 -214,-394 0,-200 153,-314 153,-114 616,-217 l 197,-44 q 612,-131 870,-370 258,-239 258,-667 0,-488 -386,-773 Q 2250,-91 1575,-91 1294,-91 989,-36 684,19 347,128 v 594 q 319,-166 628,-249 309,-82 613,-82 406,0 624,139 219,139 219,392 0,234 -158,359 -157,125 -692,241 l -200,47 q -534,112 -772,345 -237,233 -237,639 0,494 350,762 350,269 994,269 318,0 599,-47 282,-46 519,-140 z"
               transform="scale(0.015625)" />
            <path
               id="DejaVuSans-69"
               d="m 603,3500 h 575 V 0 H 603 Z m 0,1363 h 575 V 4134 H 603 Z"
               transform="scale(0.015625)" />
            <path
               id="DejaVuSans-74"
               d="M 1172,4494 V 3500 H 2356 V 3053 H 1172 V 1153 q 0,-428 117,-550 117,-122 477,-122 h 590 V 0 H 1766 Q 1100,0 847,248 594,497 594,1153 V 3053 H 172 v 447 h 422 v 994 z"
               transform="scale(0.015625)" />
            <path
               id="DejaVuSans-6e"
               d="M 3513,2113 V 0 h -575 v 2094 q 0,497 -194,743 -194,247 -581,247 -466,0 -735,-297 -269,-296 -269,-809 V 0 H 581 v 3500 h 578 v -544 q 207,316 486,472 280,156 646,156 603,0 912,-373 310,-373 310,-1098 z"
               transform="scale(0.015625)" />
          </defs>
          <use
             xlink:href="#DejaVuSans-78"
             id="use74" />
          <use
             xlink:href="#DejaVuSans-20"
             x="59.179688"
             id="use75" />
          <use
             xlink:href="#DejaVuSans-70"
             x="90.966797"
             id="use76" />
          <use
             xlink:href="#DejaVuSans-6f"
             x="154.44336"
             id="use77" />
          <use
             xlink:href="#DejaVuSans-73"
             x="215.625"
             id="use78" />
          <use
             xlink:href="#DejaVuSans-69"
             x="267.72461"
             id="use79" />
          <use
             xlink:href="#DejaVuSans-74"
             x="295.50781"
             id="use80" />
          <use
             xlink:href="#DejaVuSans-69"
             x="334.7168"
             id="use81" />
          <use
             xlink:href="#DejaVuSans-6f"
             x="362.5"
             id="use82" />
          <use
             xlink:href="#DejaVuSans-6e"
             x="423.68164"
             id="use83" />
        </g>
      </g>
    </g>
    <g
       id="matplotlib.axis_2">
      <g
         id="ytick_1">
        <g
           id="line2d_6">
          <defs
             id="defs83">
            <path
               id="me493f49040"
               d="M 0,0 H -3.5"
               style="stroke:#000000;stroke-width:0.8" />
          </defs>
          <g
             id="g84">
            <use
               xlink:href="#me493f49040"
               x="103.104"
               y="302.86978"
               style="stroke:#000000;stroke-width:0.8"
               id="use84" />
          </g>
        </g>
        <g
           id="text_7">
          <!-- −4 -->
          <g
             transform="matrix(0.1,0,0,-0.1,81.361813,306.66899)"
             id="g86">
            <use
               xlink:href="#DejaVuSans-2212"
               id="use85" />
            <use
               xlink:href="#DejaVuSans-34"
               x="83.789062"
               id="use86" />
          </g>
        </g>
      </g>
      <g
         id="ytick_2">
        <g
           id="line2d_7">
          <g
             id="g87">
            <use
               xlink:href="#me493f49040"
               x="103.104"
               y="270.78433"
               style="stroke:#000000;stroke-width:0.8"
               id="use87" />
          </g>
        </g>
        <g
           id="text_8">
          <!-- −3 -->
          <g
             transform="matrix(0.1,0,0,-0.1,81.361813,274.58355)"
             id="g89">
            <defs
               id="defs87">
              <path
                 id="DejaVuSans-33"
                 d="m 2597,2516 q 453,-97 707,-404 255,-306 255,-756 0,-690 -475,-1069 -475,-378 -1350,-378 -293,0 -604,58 -311,58 -642,174 v 609 q 262,-153 574,-231 313,-78 654,-78 593,0 904,234 311,234 311,681 0,413 -289,645 -289,233 -804,233 h -544 v 519 h 569 q 465,0 712,186 247,186 247,536 0,359 -255,551 -254,193 -729,193 -260,0 -557,-57 -297,-56 -653,-174 v 562 q 360,100 674,150 314,50 592,50 719,0 1137,-327 419,-326 419,-882 0,-388 -222,-655 -222,-267 -631,-370 z"
                 transform="scale(0.015625)" />
            </defs>
            <use
               xlink:href="#DejaVuSans-2212"
               id="use88" />
            <use
               xlink:href="#DejaVuSans-33"
               x="83.789062"
               id="use89" />
          </g>
        </g>
      </g>
      <g
         id="ytick_3">
        <g
           id="line2d_8">
          <g
             id="g90">
            <use
               xlink:href="#me493f49040"
               x="103.104"
               y="238.69888"
               style="stroke:#000000;stroke-width:0.8"
               id="use90" />
          </g>
        </g>
        <g
           id="text_9">
          <!-- −2 -->
          <g
             transform="matrix(0.1,0,0,-0.1,81.361813,242.4981)"
             id="g92">
            <use
               xlink:href="#DejaVuSans-2212"
               id="use91" />
            <use
               xlink:href="#DejaVuSans-32"
               x="83.789062"
               id="use92" />
          </g>
        </g>
      </g>
      <g
         id="ytick_4">
        <g
           id="line2d_9">
          <g
             id="g93">
            <use
               xlink:href="#me493f49040"
               x="103.104"
               y="206.61345"
               style="stroke:#000000;stroke-width:0.8"
               id="use93" />
          </g>
        </g>
        <g
           id="text_10">
          <!-- −1 -->
          <g
             transform="matrix(0.1,0,0,-0.1,81.361813,210.41266)"
             id="g95">
            <defs
               id="defs93">
              <path
                 id="DejaVuSans-31"
                 d="M 794,531 H 1825 V 4091 L 703,3866 v 575 l 1116,225 h 631 V 531 H 3481 V 0 H 794 Z"
                 transform="scale(0.015625)" />
            </defs>
            <use
               xlink:href="#DejaVuSans-2212"
               id="use94" />
            <use
               xlink:href="#DejaVuSans-31"
               x="83.789062"
               id="use95" />
          </g>
        </g>
      </g>
      <g
         id="ytick_5">
        <g
           id="line2d_10">
          <g
             id="g96">
            <use
               xlink:href="#me493f49040"
               x="103.104"
               y="174.528"
               style="stroke:#000000;stroke-width:0.8"
               id="use96" />
          </g>
        </g>
        <g
           id="text_11">
          <!-- 0 -->
          <g
             transform="matrix(0.1,0,0,-0.1,89.7415,178.32722)"
             id="g97">
            <use
               xlink:href="#DejaVuSans-30"
               id="use97" />
          </g>
        </g>
      </g>
      <g
         id="ytick_6">
        <g
           id="line2d_11">
          <g
             id="g98">
            <use
               xlink:href="#me493f49040"
               x="103.104"
               y="142.44255"
               style="stroke:#000000;stroke-width:0.8"
               id="use98" />
          </g>
        </g>
        <g
           id="text_12">
          <!-- 1 -->
          <g
             transform="matrix(0.1,0,0,-0.1,89.7415,146.24178)"
             id="g99">
            <use
               xlink:href="#DejaVuSans-31"
               id="use99" />
          </g>
        </g>
      </g>
      <g
         id="ytick_7">
        <g
           id="line2d_12">
          <g
             id="g100">
            <use
               xlink:href="#me493f49040"
               x="103.104"
               y="110.35712"
               style="stroke:#000000;stroke-width:0.8"
               id="use100" />
          </g>
        </g>
        <g
           id="text_13">
          <!-- 2 -->
          <g
             transform="matrix(0.1,0,0,-0.1,89.7415,114.15633)"
             id="g101">
            <use
               xlink:href="#DejaVuSans-32"
               id="use101" />
          </g>
        </g>
      </g>
      <g
         id="ytick_8">
        <g
           id="line2d_13">
          <g
             id="g102">
            <use
               xlink:href="#me493f49040"
               x="103.104"
               y="78.271675"
               style="stroke:#000000;stroke-width:0.8"
               id="use102" />
          </g>
        </g>
        <g
           id="text_14">
          <!-- 3 -->
          <g
             transform="matrix(0.1,0,0,-0.1,89.7415,82.070892)"
             id="g103">
            <use
               xlink:href="#DejaVuSans-33"
               id="use103" />
          </g>
        </g>
      </g>
      <g
         id="ytick_9">
        <g
           id="line2d_14">
          <g
             id="g104">
            <use
               xlink:href="#me493f49040"
               x="103.104"
               y="46.18623"
               style="stroke:#000000;stroke-width:0.8"
               id="use104" />
          </g>
        </g>
        <g
           id="text_15">
          <!-- 4 -->
          <g
             transform="matrix(0.1,0,0,-0.1,89.7415,49.985449)"
             id="g105">
            <use
               xlink:href="#DejaVuSans-34"
               id="use105" />
          </g>
        </g>
      </g>
      <g
         id="text_16">
        <!-- y position -->
        <g
           transform="matrix(0,-0.1,-0.1,0,75.282125,198.88112)"
           id="g115">
          <defs
             id="defs105">
            <path
               id="DejaVuSans-79"
               d="m 2059,-325 q -243,-625 -475,-815 -231,-191 -618,-191 H 506 v 481 h 338 q 237,0 368,113 132,112 291,531 L 1606,56 191,3500 H 800 L 1894,763 2988,3500 h 609 z"
               transform="scale(0.015625)" />
          </defs>
          <use
             xlink:href="#DejaVuSans-79"
             id="use106" />
          <use
             xlink:href="#DejaVuSans-20"
             x="59.179688"
             id="use107" />
          <use
             xlink:href="#DejaVuSans-70"
             x="90.966797"
             id="use108" />
          <use
             xlink:href="#DejaVuSans-6f"
             x="154.44336"
             id="use109" />
          <use
             xlink:href="#DejaVuSans-73"
             x="215.625"
             id="use110" />
          <use
             xlink:href="#DejaVuSans-69"
             x="267.72461"
             id="use111" />
          <use
             xlink:href="#DejaVuSans-74"
             x="295.50781"
             id="use112" />
          <use
             xlink:href="#DejaVuSans-69"
             x="334.7168"
             id="use113" />
          <use
             xlink:href="#DejaVuSans-6f"
             x="362.5"
             id="use114" />
          <use
             xlink:href="#DejaVuSans-6e"
             x="423.68164"
             id="use115" />
        </g>
      </g>
    </g>
    <g
       id="patch_3">
      <path
         d="M 103.104,307.584 V 41.472"
         style="fill:none;stroke:#000000;stroke-width:0.8;stroke-linecap:square;stroke-linejoin:miter"
         id="path115" />
    </g>
    <g
       id="patch_4">
      <path
         d="M 369.216,307.584 V 41.472"
         style="fill:none;stroke:#000000;stroke-width:0.8;stroke-linecap:square;stroke-linejoin:miter"
         id="path116" />
    </g>
    <g
       id="patch_5">
      <path
         d="M 103.104,307.584 H 369.216"
         style="fill:none;stroke:#000000;stroke-width:0.8;stroke-linecap:square;stroke-linejoin:miter"
         id="path117" />
    </g>
    <g
       id="patch_6">
      <path
         d="M 103.104,41.472 H 369.216"
         style="fill:none;stroke:#000000;stroke-width:0.8;stroke-linecap:square;stroke-linejoin:miter"
         id="path118" />
    </g>
  </g>
  <defs
     id="defs118">
    <clipPath
       id="p8697c96e16">
      <rect
         x="103.104"
         y="41.472"
         width="266.112"
         height="266.112"
         id="rect118" />
    </clipPath>
  </defs>
</svg>
